<?xml version="1.0" standalone="yes"?>
<svg xmlns="http://www.w3.org/2000/svg" width="306" height="499">
<path style="fill:#fafafa; stroke:none;" d="M0 0L0 296L1 296C7.31295 284.575 28.13 288 39 288C42.7126 288 50.6293 289.465 52.9329 285.682C55.8987 280.811 52.0091 268.67 52 263C51.9738 246.693 54.1145 229.697 58.6998 214C63.8358 196.418 68.6018 175.005 80.1883 160.335C84.4664 154.918 89.992 149.32 95.5177 145.144C99.3385 142.257 105.282 139.876 106.682 134.83C110.128 122.416 105.092 106.425 104.093 94C101.677 63.9418 100 33.1707 100 3L129 3L130 9C134.789 9 143.153 7.3291 146.75 11.1111C150.529 15.0851 148.022 21.1666 148 26C147.938 39.3196 146.203 52.7025 146.972 66C147.266 71.085 144.41 87.8022 150 89L147 92C149.748 101.407 152.167 118.881 148 128L172 136L171 139L149 135L156 144L162 143L163 148C156.717 148.932 153.461 159.349 154 165L153 165L153 163L152 163L154 177L153 177L153 175L152 175L152 196L137 209L119 204L119 200L118 200L116 202L117 199L114 198L112 186C107.07 180.185 106.006 170.398 106 163L98 169L97 169L96 166L95 166L92 169L91 165L96 158C102.68 156.204 109.001 151.369 107 144C92.2556 151.758 70.6138 169.497 74 189C70.9511 191.184 72.0988 195.723 70.5509 199C65.6233 209.432 61 221.344 61 233L59 232L59 243L57 242L58 287C77.4319 292.744 104.695 288 125 288C153.286 288 181.73 287.123 210 288.035C227.778 288.609 248.55 292.154 266 288L260 269L258 270C257.53 247.918 248.174 215.354 235.986 197.014C231.944 190.932 226.384 181.036 219 179C218.067 173.94 212.673 169.715 209.169 166.09C199.66 156.251 186.818 142.991 173 140L174 137C208.073 153.504 250.36 191.332 253 232L254 232L254 229L255 229L255 237L256 237L256 235L257 235L257 245L259 244C259.226 254.892 264.794 262.911 267.489 273C268.645 277.327 269.611 285.008 273.549 287.821C282.192 293.994 296.161 283.481 301.713 297.004C307.192 310.35 305 332.614 305 347L305 449C305 459.375 304.021 469.68 304 480C303.988 486.109 304.4 493.344 300 498L300 499L306 499L306 0L0 0z"/>
<path style="fill:#9b9893; stroke:none;" d="M100 3C100 33.5327 101.649 64.5862 104.093 95C105.04 106.776 109.844 122.168 106.682 133.91C104.236 142.996 86.1609 151.741 80.1883 159.536C68.7251 174.497 63.8875 195.241 58.6998 213C54.3252 227.976 52 244.426 52 260C52 266.55 55.6031 279.01 52.8025 284.852C50.4018 289.86 40.4866 288 36 288C26.9145 288 7.01009 284.899 1.3179 294.34C-0.936611 298.08 0 303.817 0 308L1 308C1.00048 303.662 0.391876 298.747 3.43364 295.214C7.70195 290.256 14.1048 290.42 20 289.715C35.8987 287.813 52.9529 289.64 69 289.975C143.605 291.534 218.392 290 293 290L293 289L274.299 287.821L267.489 272L259 244L257 245L257 235L256 235L256 237L255 237L255 229L254 229L254 232L253 232C252.06 200.162 225.266 174.704 203.09 155.325C198.671 151.463 177.904 132.877 173 140C185.754 142.126 200.308 156.77 208 166C211.399 170.079 219.661 176.358 219 179C226.023 182.124 231.133 190.804 235.329 197.014C247.89 215.602 256.973 247.525 258 270L260 269L266 288L216.285 288.178L142 288L88 288L58 287L57 242L59 243L59 232L61 233C61.0342 221.083 66.58 209.816 71.0069 199.015C72.4008 195.614 71.957 192.18 74 189C73.3094 167.5 91.8746 154.77 107 144C108.346 151.335 102.152 155.335 96 158L91 165L92 169L95 166L96 166L97 169L98 169L106 163C106.001 169.728 106.278 181.533 112 186L114 198L117 199L116 201L116 202L118 200L119 200L119 204L137 209L152 196L152 175L153 175L153 177L154 177L152 163L153 163L153 165L154 165C153.784 159.431 157.114 149.605 163 148L162 143L156 144L149 135C154.597 135.015 168.757 140.434 172 136L148 128C152.717 120.788 150.25 99.7942 147 92L150 89C145.063 85.7078 147.053 73.5334 146.996 68C146.852 53.9815 147.603 40.0198 148.014 26C148.151 21.3141 150.754 14.2431 146.566 10.6034C142.887 7.40567 134.563 9 130 9L127 3C130.094 14.7129 142.244 6.03522 146.047 13.2678C147.82 16.6396 146.025 22.2951 146.001 26C145.921 38.3349 144.008 50.6604 144 63C141.281 61.8709 136.899 60.9952 136.157 65.1898C135.425 69.3223 138.608 75.5802 138.91 80C139.437 87.6814 137.404 94.5044 137.04 102C136.86 105.706 138.141 111.432 135.972 114.682C132.592 119.748 119.366 117.414 114 119L114 120L141 120C140.277 123.909 139.17 129.965 144 131L144 132C139.774 134.74 140.998 140.429 141 145C141.004 155.091 147.556 179.017 135.91 184.552C123.02 190.677 109.422 182.593 108.495 169C107.733 157.833 109.951 146.264 109.675 135C108.618 91.8382 104.396 48.0327 101 5L109 4L100 3z"/>
<path style="fill:#645958; stroke:none;" d="M101 5C102.848 48.0329 107.643 90.9481 109.407 134C109.888 145.744 106.986 158.473 108.364 170C109.966 183.392 123.93 191.244 136.826 184.566C143.003 181.366 142.264 174.791 142.039 169C141.676 159.705 136.969 138.885 144 132L144 131L141 131L141 120L136 120L136 121L139 122L139 124L135 125L135 128L138 128C134.358 141.992 141.965 159.323 140.494 174C139.238 186.525 116.767 188.803 112.133 177.995C107.114 166.291 112.123 154.141 111.971 142.015C111.682 118.982 107.111 96.2274 106.999 73C106.963 65.5732 101.435 46.9893 108 42L108 38L105 39L102 6L122 7L122 6L120 6L120 5L123 3L101 5z"/>
<path style="fill:#4c4037; stroke:none;" d="M123 3L120 5L120 6L122 6L122 7L102 6L105 39L107 38L108 38L108 42C101.497 43.4151 107 68.1772 107 74C107 97.3981 112.053 119.976 112 143C111.971 155.639 106.578 167.885 112.417 180C114.894 185.14 131.989 186.415 136.694 183.278C141.784 179.885 141.002 171.123 140.528 166C139.446 154.313 136.035 139.395 138 128L135 125L139 124L139 122L124 121L124 122L132 122L132 123L123 124L113 121C117.245 114.08 129.811 117.692 137 115L136 108L136 107C130.94 100.979 130.154 78.6471 136 73L131 65L131 61L136 59L142 59L141.91 37L139 24L140 24L142 28L144 20L143 20L143 24L138 22L145 12C133.324 12 131.954 8.33868 123 3z"/>
<path style="fill:#645958; stroke:none;" d="M124 3L124 4L127 5L124 3M127 5L127 8L128 8L127 5M104 12L108 13L109 8L104 12M123.333 8.66666L123.667 9.33334L123.333 8.66666M128 8C131.38 13.3628 139.374 12 145 12L138 22L143 24L143 20L144 20L142 28L140 24L139 24L141.71 36.0008L142 59L136 59L131 61L131 65L136 73C129.931 77.1386 130.505 102.798 136 107L136 108C133.953 110.011 135.107 111.16 137 113L139 80L138 80L138 87L136 87L134 77L138 79L139 79C138.163 72.3832 132.618 60.3578 144 63L146.015 25L145.397 11.8318L128 8M112 11L113 12L112 11M128 14L128 15L131 15L128 14M135 14L136 15L135 14M133 15L134 16L133 15M109 38L109 41L110 41L109 38M108 56L108 59L109 59L108 56z"/>
<path style="fill:#fafafa; stroke:none;" d="M139 64L140 65L139 64z"/>
<path style="fill:#645958; stroke:none;" d="M131.667 71.3333L132.333 71.6667L131.667 71.3333z"/>
<path style="fill:#fafafa; stroke:none;" d="M141 73L138 118C142.172 115.289 141.992 111.675 142 107C142.017 97.0118 144.884 82.2555 141 73z"/>
<path style="fill:#4c4037; stroke:none;" d="M134 77L136 87L138 87C138.081 82.4412 139.488 77.9619 134 77z"/>
<path style="fill:#645958; stroke:none;" d="M111 88L112 89L111 88M112 111L113 112L112 111M131 112L131 113L134 114L131 112M112 113L113 114L112 113M115.667 113.333L116.333 113.667L115.667 113.333z"/>
<path style="fill:#151a18; stroke:none;" d="M129.667 115.333L130.333 115.667L129.667 115.333z"/>
<path style="fill:#645958; stroke:none;" d="M136 115L137 116L136 115M132 116L132 117L136 117L132 116M114 119L127 118C123.353 116.47 116.758 115.844 114 119z"/>
<path style="fill:#fafafa; stroke:none;" d="M135.667 118.333L136.333 118.667L135.667 118.333z"/>
<path style="fill:#645958; stroke:none;" d="M113 119C115.48 122.825 119.808 122 124 122L124 121L113 119z"/>
<path style="fill:#151a18; stroke:none;" d="M123 124L132 123C128.911 121.704 125.307 121.359 123 124M134.667 122.333L135.333 122.667L134.667 122.333z"/>
<path style="fill:#9b9893; stroke:none;" d="M102 126L103 127L102 126M161 151L162 152L161 151z"/>
<path style="fill:#fafafa; stroke:none;" d="M155 155L156 156L155 155z"/>
<path style="fill:#9b9893; stroke:none;" d="M86.6667 169.333L87.3333 169.667L86.6667 169.333M86 171L87 175L91 170L86 171z"/>
<path style="fill:#fafafa; stroke:none;" d="M152.333 171.667L152.667 172.333L152.333 171.667z"/>
<path style="fill:#9b9893; stroke:none;" d="M83 177L86 176L84 178L84 179C87.1972 178.311 86.746 176.946 86 174L83 177z"/>
<path style="fill:#fafafa; stroke:none;" d="M84 175L85 176L84 175z"/>
<path style="fill:#9b9893; stroke:none;" d="M81 178L82 179L81 178M80 180L79 184C75.8972 184.382 75.4359 186.023 75 189L79 189L80 180M82.6667 180.333L83.3333 180.667L82.6667 180.333z"/>
<path style="fill:#151a18; stroke:none;" d="M130 182L130 183L136 183L136 181L130 182z"/>
<path style="fill:#9b9893; stroke:none;" d="M82 182L83 183L82 182M73 193L73 196L74 196L73 193M149 199L150 200L149 199M114 200L115 201L114 200z"/>
<path style="fill:#fafafa; stroke:none;" d="M141 203L142 204L141 203z"/>
<path style="fill:#9b9893; stroke:none;" d="M117 204L118 205L117 204z"/>
<path style="fill:#645958; stroke:none;" d="M6 292L6 293C30.6241 287.371 58.7703 291 84 291L233 291C227.293 288.605 219.154 290 213 290L172 290C138.091 290 103.878 291.336 70 289.961C49.8636 289.144 25.4234 285.843 6 292z"/>
<path style="fill:#4c4037; stroke:none;" d="M300 298L296 300L295 297L299 297C295.805 288.57 284.376 292.724 277 292L277 291L289 291C283.127 288.536 276.166 290.923 270 290.996C255.671 291.167 241.33 291 227 291L73 291L26 291C19.6965 291 10.6121 289.575 5.30401 293.843C1.90919 296.573 2.12076 302.048 2.02546 306L1.11574 337.285C0.169674 373.233 1.94225 409.077 2 445C2.01629 455.133 2.54931 465.925 3.71528 476.001C4.1144 479.45 3.42266 483.713 5.74228 486.606C9.44237 491.22 17.6865 490.991 23 491C36.7001 491.022 50.2767 492 64 492C121.023 492 177.944 493 235 493C250.698 493 266.286 494.025 282 494C286.751 493.992 296 494.298 298.972 489.697C301.182 486.275 300 479.896 300 476C300 464.689 299.562 453.305 300.039 442C302.059 394.127 300 346.024 300 298z"/>
<path style="fill:#645958; stroke:none;" d="M234 290L234 291L277 291C265.774 286.29 246.219 290 234 290M289 290L289 291C293.666 291.481 296.62 292.886 299 297L295 297L296 300L300 298C300 345.788 301.554 393.386 300.035 441C299.663 452.668 300 464.338 300 476C300 480.049 301.144 486.328 298.397 489.697C294.774 494.139 286.161 493.992 281 494C265.653 494.025 250.361 493 235 493C177.943 493 121.025 492 64 492C50.2832 492 36.7055 491.065 23 490.999C17.415 490.972 9.40339 490.776 5.74228 485.786C2.79851 481.774 3.47582 473.801 3.32948 469C2.96232 456.954 2 445.066 2 433C2 386.893 1.06083 341.104 3 295C-3.56347 304.607 0 325.686 0 337C0 373.018 1 409.036 1 445C1 456.099 -2.39711 483.553 8.01852 490.146C20.4591 498.021 41.8987 493.423 56 494.039C96.5847 495.814 137.393 495.534 178 495.571C207.329 495.597 236.641 496.218 266 495.861C274.602 495.757 291.947 498.629 298.772 492.566C306.424 485.768 302 460.606 302 451L302 331C302 318.473 306.373 290.903 289 290z"/>
<path style="fill:#9b9893; stroke:none;" d="M294 290L294 291C305.914 297.534 302 323.216 302 335L302 451C302 461.015 306.269 484.275 298.772 491.772C294.179 496.364 284.102 495.892 278 495.742C263.002 495.372 248.025 496.024 233 496C178.082 495.912 122.929 494.989 68 494.336C53.7637 494.166 39.1889 494.7 25 493.299C18.6285 492.671 12.3257 493.251 7.05478 488.721C0.589655 483.166 2.03611 474.648 1.99923 467C1.92873 452.38 1 437.691 1 423L0 423C0 441.332 -0.0947087 459.668 0.000771605 478C0.0286199 483.347 0.616366 494.405 5.50926 497.821C9.5612 500.65 18.2714 499 23 499L67 499L235 499L285 499C289.584 499 298.881 500.74 301.976 496.427C304.677 492.665 303.991 485.385 304 481C304.019 471.339 305 461.711 305 452C305 412.908 305.188 374.07 304.999 335C304.947 324.065 307.199 292.693 294 290z"/>
<path style="fill:#151a18; stroke:none;" d="M277 291L277 292L291 292L277 291z"/>
<path style="fill:#645958; stroke:none;" d="M4 293L5 294L4 293M3 294L4 295L3 294M283.667 295.333L284.333 295.667L283.667 295.333M290 295L291 296L290 295M295 301L297 304L297 301L295 301M292 304L293 305L292 304M205 307L205 308L208 309L208 306L205 307z"/>
<path style="fill:#151a18; stroke:none;" d="M20 324C24.2163 323.032 42.8405 327.284 34.9491 334.111C31.9225 336.73 22.8409 335 19 335C20.8425 345.074 19 356.672 19 367L19 435C19 443.327 19.2491 451.678 19.1389 460C19.0959 463.245 18.1663 467.891 20.6034 470.527C23.0504 473.173 29.6153 472.59 33 472.795C45.0041 473.521 57.1695 471.397 69 471.824C119.9 473.66 171.036 472.636 222 472.997C236 473.096 250.003 473 264 473C267.942 473 276.168 474.552 279.142 471.397C281.718 468.664 281.013 463.424 280.999 460C280.963 450.996 280.97 442.008 280.999 432.999C281.086 406.126 280.849 379.313 280.849 352.424C280.849 340.553 284.032 323.433 280.682 312.148C279.211 307.192 269.95 309 266 309C250.604 309 235.385 309.424 220 309.429C181.325 309.441 141.851 309.741 103 308.039C89.0884 307.43 74.7254 309.49 61 307.754C47.2566 306.016 14.0607 302.398 20 324z"/>
<path style="fill:#645958; stroke:none;" d="M296 309L297 310L296 309z"/>
<path style="fill:#4c4037; stroke:none;" d="M273 324C268.828 323.775 263.101 319.656 259.279 320.792C255.308 321.971 254.811 331.618 257.028 334.396C263.58 342.605 271.177 328.096 273 324z"/>
<path style="fill:#645958; stroke:none;" d="M258 335C261.546 334.568 271.506 332.892 268.863 327.205C267.564 324.409 260.732 320.21 258.219 323.608C256.416 326.047 258.109 331.988 258 335z"/>
<path style="fill:#9b9893; stroke:none;" d="M259 323C258.774 329.164 263.418 331.391 269 330C266.847 325.788 263.594 323.889 259 323z"/>
<path style="fill:#645958; stroke:none;" d="M15.2438 325.066C11.8256 327.068 13.1422 330.991 16.1127 332.566C19.4662 334.345 31.2108 335.432 34.338 332.887C37.0093 330.712 32.7091 326.932 30.9807 325.858C27.6572 323.793 18.7383 323.02 15.2438 325.066z"/>
<path style="fill:#4c4037; stroke:none;" d="M28 324L28 325L31 325L28 324z"/>
<path style="fill:#9b9893; stroke:none;" d="M32 330C25.258 317.162 7.107 334.148 24.9985 331.586C27.3591 331.248 29.6416 330.399 32 330z"/>
<path style="fill:#645958; stroke:none;" d="M16 339L16 341L18 341L18 339L16 339z"/>
<path style="fill:#4c4037; stroke:none;" d="M134.667 343.333L135.333 343.667L134.667 343.333M99 366L100 367L99 366z"/>
<path style="fill:#9b9893; stroke:none;" d="M106 404L106 403L100 403L100 367L106 367L99.6034 368.318L99 394L100.026 402.397L106 404z"/>
<path style="fill:#645958; stroke:none;" d="M111 366L112 367L111 366z"/>
<path style="fill:#9b9893; stroke:none;" d="M119 403L119 402L112 403L112 367L118 367L111.603 368.318L111 394L112.028 402.396L119 403z"/>
<path style="fill:#fafafa; stroke:none;" d="M100 367L100 403L106 403L106 367L100 367z"/>
<path style="fill:#4c4037; stroke:none;" d="M106 367L106 376L107 376L106 367z"/>
<path style="fill:#fafafa; stroke:none;" d="M112 367L112 403C118.112 402.928 125.952 405.689 130.721 400.772C140.212 390.987 131.465 373.944 118 381L118 367L112 367z"/>
<path style="fill:#4c4037; stroke:none;" d="M118 367L118 376L119 376L118 367z"/>
<path style="fill:#9b9893; stroke:none;" d="M79 368L79 369L83 369L79 368z"/>
<path style="fill:#fafafa; stroke:none;" d="M69 404C74.5051 403.203 76.4797 401.671 77 396C84.2546 396.001 88.1304 396.25 90 404L97 403C94.53 394.296 91.8546 385.585 88.9992 377C88.062 374.182 87.2194 369.925 83.8819 369.047C79.2864 367.838 78.0085 372.722 76.9761 376.001C74.12 385.07 70.389 394.594 69 404z"/>
<path style="fill:#9b9893; stroke:none;" d="M84 368L84 369L87 370L84 368z"/>
<path style="fill:#645958; stroke:none;" d="M86 368L87 369L86 368z"/>
<path style="fill:#4c4037; stroke:none;" d="M78 369L79 370L78 369z"/>
<path style="fill:#645958; stroke:none;" d="M78 370L79 371L78 370M87 371L88 372L87 371z"/>
<path style="fill:#9b9893; stroke:none;" d="M87 372L88 373L87 372z"/>
<path style="fill:#645958; stroke:none;" d="M77 373L78 374L77 373z"/>
<path style="fill:#9b9893; stroke:none;" d="M77 374L78 375L77 374z"/>
<path style="fill:#645958; stroke:none;" d="M88 374L89 375L88 374z"/>
<path style="fill:#9b9893; stroke:none;" d="M88 375L89 376L88 375z"/>
<path style="fill:#645958; stroke:none;" d="M76 376L77 377L76 376z"/>
<path style="fill:#9b9893; stroke:none;" d="M76 377L77 378L76 377z"/>
<path style="fill:#4c4037; stroke:none;" d="M89 377L90 378L89 377M106 377L106 394L107 394L106 377M118 377L119 378L118 377z"/>
<path style="fill:#9b9893; stroke:none;" d="M82 378L83 381L84 381L82 378M89 378L90 379L89 378z"/>
<path style="fill:#4c4037; stroke:none;" d="M121 378L122 379L121 378z"/>
<path style="fill:#9b9893; stroke:none;" d="M122.667 378.333L123.333 378.667L122.667 378.333M128 378L129 379L128 378z"/>
<path style="fill:#4c4037; stroke:none;" d="M129 378L130 379L129 378M138 378L139 379L138 378z"/>
<path style="fill:#645958; stroke:none;" d="M139 378L140 379L139 378z"/>
<path style="fill:#4c4037; stroke:none;" d="M140.667 378.333L141.333 378.667L140.667 378.333z"/>
<path style="fill:#645958; stroke:none;" d="M142 378L143 379L142 378z"/>
<path style="fill:#4c4037; stroke:none;" d="M143 378L144 379L143 378z"/>
<path style="fill:#645958; stroke:none;" d="M144 378L145 379L144 378M154 378L153 380L154 378z"/>
<path style="fill:#4c4037; stroke:none;" d="M155 378L155 379L159 379L155 378z"/>
<path style="fill:#645958; stroke:none;" d="M159 378L160 379L159 378z"/>
<path style="fill:#4c4037; stroke:none;" d="M165 378L165 379L169 379L165 378z"/>
<path style="fill:#645958; stroke:none;" d="M169 378L170 379L169 378z"/>
<path style="fill:#4c4037; stroke:none;" d="M170 378L171 379L170 378z"/>
<path style="fill:#645958; stroke:none;" d="M171 378L172 379L171 378z"/>
<path style="fill:#9b9893; stroke:none;" d="M176 378L177 379L176 378z"/>
<path style="fill:#fafafa; stroke:none;" d="M173 381L172 381L166 379L166 403L172 404C172 399.42 169.906 387.839 174.317 384.967C182.705 379.505 181 399.502 181 403L187 403C187 399.111 184.814 381.79 192.856 384.422C198.131 386.149 196 398.733 196 403L202 403C202 397.079 203.545 388.593 201.258 383.055C198.863 377.259 191.231 377.284 188 382C182.702 378.976 178.279 376.807 173 381z"/>
<path style="fill:#9b9893; stroke:none;" d="M181.667 378.333L182.333 378.667L181.667 378.333z"/>
<path style="fill:#4c4037; stroke:none;" d="M183 378L184 379L183 378z"/>
<path style="fill:#645958; stroke:none;" d="M191 378L192 379L191 378z"/>
<path style="fill:#9b9893; stroke:none;" d="M192 378L193 379L192 378M196.667 378.333L197.333 378.667L196.667 378.333z"/>
<path style="fill:#4c4037; stroke:none;" d="M198 378L199 379L198 378z"/>
<path style="fill:#645958; stroke:none;" d="M213 378L214 379L213 378z"/>
<path style="fill:#9b9893; stroke:none;" d="M214 378L214 379L221 379L214 378z"/>
<path style="fill:#645958; stroke:none;" d="M221 378L222 379L221 378z"/>
<path style="fill:#4c4037; stroke:none;" d="M222 378L223 379L222 378M75 379L76 380L75 379M82 379L83 380L82 379M118 379L119 380L118 379z"/>
<path style="fill:#9b9893; stroke:none;" d="M120 379L121 380L120 379z"/>
<path style="fill:#645958; stroke:none;" d="M130 379L131 380L130 379z"/>
<path style="fill:#9b9893; stroke:none;" d="M138 379L138 396L139 396L138 379z"/>
<path style="fill:#fafafa; stroke:none;" d="M139 379C139 389.122 137.207 412.084 154 401L155 404L159 404L160 379L154 379C154 382.382 155.635 402.62 147.433 397.914C142.931 395.33 145 383.39 145 379L139 379z"/>
<path style="fill:#4c4037; stroke:none;" d="M160.333 379.667L160.667 380.333L160.333 379.667z"/>
<path style="fill:#9b9893; stroke:none;" d="M165 379C165 386.282 161.334 403.247 171 404L171 403L166 403L165 379z"/>
<path style="fill:#4c4037; stroke:none;" d="M172.333 379.667L172.667 380.333L172.333 379.667z"/>
<path style="fill:#9b9893; stroke:none;" d="M174 379L175 380L174 379M184 379L185 380L184 379M189 379L190 380L189 379z"/>
<path style="fill:#645958; stroke:none;" d="M199 379L200 380L199 379M211 379L212 380L211 379z"/>
<path style="fill:#fafafa; stroke:none;" d="M208 397L208 403C213.588 404.037 231.93 404.051 225.102 393.133C222.413 388.834 216.257 388.121 213 384L225 385C225.246 377.417 212.669 376.464 209.18 382.228C203.743 391.211 215.907 391.302 219.248 395.683C223.772 401.612 209.561 397.728 208 397z"/>
<path style="fill:#9b9893; stroke:none;" d="M224 379L226 381L224 379z"/>
<path style="fill:#4c4037; stroke:none;" d="M225 379L226 380L225 379z"/>
<path style="fill:#9b9893; stroke:none;" d="M75 380L76 381L75 380z"/>
<path style="fill:#151a18; stroke:none;" d="M82 380L80 391L86 391L82 380z"/>
<path style="fill:#4c4037; stroke:none;" d="M90 380L91 381L90 380z"/>
<path style="fill:#9b9893; stroke:none;" d="M118 380L119 381L118 380M131 380L132 381L131 380z"/>
<path style="fill:#4c4037; stroke:none;" d="M153 380L153 384L154 384L153 380z"/>
<path style="fill:#9b9893; stroke:none;" d="M185 380L186 381L185 380M200 380L201 381L200 380z"/>
<path style="fill:#4c4037; stroke:none;" d="M209 380L210 381L209 380z"/>
<path style="fill:#9b9893; stroke:none;" d="M81 381L82 382L81 381z"/>
<path style="fill:#4c4037; stroke:none;" d="M83 381L84 382L83 381z"/>
<path style="fill:#9b9893; stroke:none;" d="M90 381L91 382L90 381z"/>
<path style="fill:#4c4037; stroke:none;" d="M132 381L133 382L132 381z"/>
<path style="fill:#645958; stroke:none;" d="M160.333 381.667L160.667 382.333L160.333 381.667z"/>
<path style="fill:#4c4037; stroke:none;" d="M186 381L187 382L186 381z"/>
<path style="fill:#9b9893; stroke:none;" d="M187 381L188 382L187 381z"/>
<path style="fill:#4c4037; stroke:none;" d="M201 381L202 382L201 381M74 382L75 383L74 382z"/>
<path style="fill:#645958; stroke:none;" d="M81 382L82 383L81 382z"/>
<path style="fill:#9b9893; stroke:none;" d="M132 382L133 383L132 382M201 382L202 383L201 382M208 382L209 383L208 382M216 382L216 383L219 383L216 382M225 382L225 385L226 385L225 382z"/>
<path style="fill:#645958; stroke:none;" d="M74 383L75 384L74 383z"/>
<path style="fill:#4c4037; stroke:none;" d="M81 383L82 384L81 383z"/>
<path style="fill:#9b9893; stroke:none;" d="M84 383L85 384L84 383M120.667 383.333L121.333 383.667L120.667 383.333z"/>
<path style="fill:#4c4037; stroke:none;" d="M122 383L123 384L122 383z"/>
<path style="fill:#645958; stroke:none;" d="M123 383L124 384L123 383z"/>
<path style="fill:#9b9893; stroke:none;" d="M124 383L125 384L124 383z"/>
<path style="fill:#4c4037; stroke:none;" d="M133 383L134 384L133 383M160 383L161 384L160 383z"/>
<path style="fill:#9b9893; stroke:none;" d="M176.667 383.333L177.333 383.667L176.667 383.333M191 383L191 384L194 384L191 383z"/>
<path style="fill:#4c4037; stroke:none;" d="M202 383L203 384L202 383z"/>
<path style="fill:#9b9893; stroke:none;" d="M214 383L215 384L214 383z"/>
<path style="fill:#645958; stroke:none;" d="M221 383L222 384L221 383z"/>
<path style="fill:#9b9893; stroke:none;" d="M222 383L223 384L222 383M74 384L75 385L74 384z"/>
<path style="fill:#645958; stroke:none;" d="M84 384L85 385L84 384M91 384L92 385L91 384M119 384L120 385L119 384z"/>
<path style="fill:#151a18; stroke:none;" d="M118 398C137.701 403.607 118.83 371.852 118.436 391C118.388 393.349 118.243 395.665 118 398z"/>
<path style="fill:#4c4037; stroke:none;" d="M125 384L126 385L125 384z"/>
<path style="fill:#9b9893; stroke:none;" d="M133 384L134 385L133 384z"/>
<path style="fill:#645958; stroke:none;" d="M153 384L153 392L154 392L153 384M160 384L160 392L161 392L160 384z"/>
<path style="fill:#9b9893; stroke:none;" d="M173 384L174 385L173 384z"/>
<path style="fill:#645958; stroke:none;" d="M179 384L180 385L179 384z"/>
<path style="fill:#4c4037; stroke:none;" d="M189 384L190 385L189 384z"/>
<path style="fill:#645958; stroke:none;" d="M194 384L195 385L194 384M202.333 384.667L202.667 385.333L202.333 384.667M207 384L208 385L207 384z"/>
<path style="fill:#9b9893; stroke:none;" d="M213.333 384.667L213.667 385.333L213.333 384.667z"/>
<path style="fill:#645958; stroke:none;" d="M223 384L224 385L223 384z"/>
<path style="fill:#9b9893; stroke:none;" d="M80 385L81 386L80 385z"/>
<path style="fill:#4c4037; stroke:none;" d="M84 385L85 386L84 385z"/>
<path style="fill:#9b9893; stroke:none;" d="M91 385L92 386L91 385z"/>
<path style="fill:#4c4037; stroke:none;" d="M118 385L119 386L118 385z"/>
<path style="fill:#645958; stroke:none;" d="M126 385L127 386L126 385M172 385L173 386L172 385z"/>
<path style="fill:#9b9893; stroke:none;" d="M180.333 385.667L180.667 386.333L180.333 385.667M187.333 385.667L187.667 386.333L187.333 385.667z"/>
<path style="fill:#4c4037; stroke:none;" d="M188 385L189 386L188 385z"/>
<path style="fill:#9b9893; stroke:none;" d="M195 385L196 386L195 385M207.333 385.667L207.667 386.333L207.333 385.667z"/>
<path style="fill:#4c4037; stroke:none;" d="M225 385L226 386L225 385z"/>
<path style="fill:#645958; stroke:none;" d="M73 386L74 387L73 386z"/>
<path style="fill:#4c4037; stroke:none;" d="M80 386L81 387L80 386M172 386L173 387L172 386M195 386L196 387L195 386z"/>
<path style="fill:#9b9893; stroke:none;" d="M202 386L202 403L196 403L196 404L203 404L202 386M73 387L74 388L73 387M85 387L86 388L85 387z"/>
<path style="fill:#645958; stroke:none;" d="M92 387L93 388L92 387z"/>
<path style="fill:#4c4037; stroke:none;" d="M118 387L119 388L118 387z"/>
<path style="fill:#9b9893; stroke:none;" d="M127 387L127 390L128 390L127 387z"/>
<path style="fill:#4c4037; stroke:none;" d="M134 387L135 388L134 387z"/>
<path style="fill:#645958; stroke:none;" d="M180.333 387.667L180.667 388.333L180.333 387.667M187 387L187 404L188 404L187 387M207 387L208 388L207 387z"/>
<path style="fill:#4c4037; stroke:none;" d="M215 387L216 388L215 387z"/>
<path style="fill:#9b9893; stroke:none;" d="M79 388L80 389L79 388z"/>
<path style="fill:#4c4037; stroke:none;" d="M85 388L86 389L85 388z"/>
<path style="fill:#9b9893; stroke:none;" d="M92 388L93 389L92 388z"/>
<path style="fill:#645958; stroke:none;" d="M134.333 388.667L134.667 389.333L134.333 388.667z"/>
<path style="fill:#4c4037; stroke:none;" d="M172.333 388.667L172.667 389.333L172.333 388.667M207 388L208 389L207 388z"/>
<path style="fill:#9b9893; stroke:none;" d="M217 388L218 389L217 388z"/>
<path style="fill:#645958; stroke:none;" d="M218 388L219 389L218 388z"/>
<path style="fill:#4c4037; stroke:none;" d="M72 389L73 390L72 389z"/>
<path style="fill:#645958; stroke:none;" d="M79 389L80 390L79 389z"/>
<path style="fill:#4c4037; stroke:none;" d="M118 389L118 392L119 392L118 389M180 389L181 390L180 389z"/>
<path style="fill:#9b9893; stroke:none;" d="M208 389L209 390L208 389M220 389L221 390L220 389z"/>
<path style="fill:#645958; stroke:none;" d="M221 389L222 390L221 389z"/>
<path style="fill:#9b9893; stroke:none;" d="M72 390L73 391L72 390z"/>
<path style="fill:#4c4037; stroke:none;" d="M79 390L80 391L79 390z"/>
<path style="fill:#9b9893; stroke:none;" d="M86 390L79 391L79 392L86 390z"/>
<path style="fill:#645958; stroke:none;" d="M93 390L94 391L93 390M127 390L127 393L128 393L127 390z"/>
<path style="fill:#9b9893; stroke:none;" d="M134.333 390.667L134.667 391.333L134.333 390.667z"/>
<path style="fill:#645958; stroke:none;" d="M180 390L180 403L181 403L180 390M223 390L224 391L223 390z"/>
<path style="fill:#9b9893; stroke:none;" d="M93 391L94 392L93 391z"/>
<path style="fill:#4c4037; stroke:none;" d="M172 391L172 403L173 403L172 391z"/>
<path style="fill:#9b9893; stroke:none;" d="M210 391L211 392L210 391M224 391L225 392L224 391z"/>
<path style="fill:#645958; stroke:none;" d="M134.333 392.667L134.667 393.333L134.333 392.667z"/>
<path style="fill:#4c4037; stroke:none;" d="M153.333 392.667L153.667 393.333L153.333 392.667M160 392L160 396L161 396L160 392z"/>
<path style="fill:#645958; stroke:none;" d="M211 392L212 393L211 392z"/>
<path style="fill:#9b9893; stroke:none;" d="M212 392L213 393L212 392M225 392L226 393L225 392z"/>
<path style="fill:#645958; stroke:none;" d="M71 393L72 394L71 393z"/>
<path style="fill:#4c4037; stroke:none;" d="M94 393L95 394L94 393M118 393L119 394L118 393z"/>
<path style="fill:#9b9893; stroke:none;" d="M127.333 393.667L127.667 394.333L127.333 393.667z"/>
<path style="fill:#645958; stroke:none;" d="M214 393L215 394L214 393z"/>
<path style="fill:#9b9893; stroke:none;" d="M215 393L216 394L215 393z"/>
<path style="fill:#645958; stroke:none;" d="M226 393L227 394L226 393z"/>
<path style="fill:#9b9893; stroke:none;" d="M71 394L72 395L71 394M94 394L95 395L94 394z"/>
<path style="fill:#4c4037; stroke:none;" d="M134 394L135 395L134 394z"/>
<path style="fill:#645958; stroke:none;" d="M153 394L154 395L153 394z"/>
<path style="fill:#4c4037; stroke:none;" d="M217 394L218 395L217 394z"/>
<path style="fill:#9b9893; stroke:none;" d="M218 394L219 395L218 394M226.333 394.667L226.667 395.333L226.333 394.667z"/>
<path style="fill:#4c4037; stroke:none;" d="M118.333 395.667L118.667 396.333L118.333 395.667M145 395L146 396L145 395M153.333 395.667L153.667 396.333L153.333 395.667z"/>
<path style="fill:#9b9893; stroke:none;" d="M220 395L221 396L220 395z"/>
<path style="fill:#4c4037; stroke:none;" d="M70 396L71 397L70 396z"/>
<path style="fill:#9b9893; stroke:none;" d="M77 396L78 397L77 396z"/>
<path style="fill:#4c4037; stroke:none;" d="M87 396L88 397L87 396M95 396L96 397L95 396z"/>
<path style="fill:#645958; stroke:none;" d="M126 396L127 397L126 396z"/>
<path style="fill:#9b9893; stroke:none;" d="M133 396L134 397L133 396z"/>
<path style="fill:#645958; stroke:none;" d="M138.333 396.667L138.667 397.333L138.333 396.667M145 396L146 397L145 396M160 396L160 400L161 400L160 396z"/>
<path style="fill:#4c4037; stroke:none;" d="M207 396L208 397L207 396z"/>
<path style="fill:#9b9893; stroke:none;" d="M70 397L71 398L70 397z"/>
<path style="fill:#645958; stroke:none;" d="M77 397L78 398L77 397z"/>
<path style="fill:#9b9893; stroke:none;" d="M95 397L96 398L95 397M126 397L127 398L126 397z"/>
<path style="fill:#645958; stroke:none;" d="M133 397L134 398L133 397z"/>
<path style="fill:#4c4037; stroke:none;" d="M152 397L153 398L152 397z"/>
<path style="fill:#9b9893; stroke:none;" d="M207 397L207 403L208 403L207 397M226 397L227 398L226 397M88 398L89 399L88 398z"/>
<path style="fill:#4c4037; stroke:none;" d="M106 398L106 402L107 402L106 398M118 398L119 399L118 398z"/>
<path style="fill:#9b9893; stroke:none;" d="M125 398L126 399L125 398z"/>
<path style="fill:#4c4037; stroke:none;" d="M138 398L139 399L138 398z"/>
<path style="fill:#9b9893; stroke:none;" d="M146 398L147 399L146 398z"/>
<path style="fill:#4c4037; stroke:none;" d="M147 398L148 399L147 398z"/>
<path style="fill:#645958; stroke:none;" d="M150 398L151 399L150 398z"/>
<path style="fill:#9b9893; stroke:none;" d="M151 398L152 399L151 398M210 398L211 399L210 398z"/>
<path style="fill:#4c4037; stroke:none;" d="M211 398L212 399L211 398z"/>
<path style="fill:#645958; stroke:none;" d="M220 398L221 399L220 398M226 398L227 399L226 398z"/>
<path style="fill:#4c4037; stroke:none;" d="M69 399L70 400L69 399M88 399L89 400L88 399z"/>
<path style="fill:#9b9893; stroke:none;" d="M119 399L120 400L119 399z"/>
<path style="fill:#645958; stroke:none;" d="M120 399L121 400L120 399z"/>
<path style="fill:#4c4037; stroke:none;" d="M121 399L122 400L121 399z"/>
<path style="fill:#645958; stroke:none;" d="M122 399L123 400L122 399z"/>
<path style="fill:#9b9893; stroke:none;" d="M123 399L124 400L123 399z"/>
<path style="fill:#645958; stroke:none;" d="M132 399L133 400L132 399z"/>
<path style="fill:#9b9893; stroke:none;" d="M213 399L214 400L213 399z"/>
<path style="fill:#645958; stroke:none;" d="M214 399L215 400L214 399z"/>
<path style="fill:#4c4037; stroke:none;" d="M215 399L216 400L215 399z"/>
<path style="fill:#645958; stroke:none;" d="M216 399L217 400L216 399z"/>
<path style="fill:#4c4037; stroke:none;" d="M217 399L218 400L217 399z"/>
<path style="fill:#645958; stroke:none;" d="M218 399L219 400L218 399z"/>
<path style="fill:#9b9893; stroke:none;" d="M219 399L220 400L219 399z"/>
<path style="fill:#4c4037; stroke:none;" d="M226 399L227 400L226 399z"/>
<path style="fill:#9b9893; stroke:none;" d="M69 400L70 401L69 400M76 400L77 401L76 400z"/>
<path style="fill:#645958; stroke:none;" d="M96 400L97 401L96 400z"/>
<path style="fill:#9b9893; stroke:none;" d="M131 400L132 401L131 400z"/>
<path style="fill:#645958; stroke:none;" d="M139 400L140 401L139 400z"/>
<path style="fill:#4c4037; stroke:none;" d="M160 400L160 404L161 404L160 400z"/>
<path style="fill:#9b9893; stroke:none;" d="M225 400L226 401L225 400z"/>
<path style="fill:#4c4037; stroke:none;" d="M76 401L77 402L76 401z"/>
<path style="fill:#9b9893; stroke:none;" d="M89 401L90 402L89 401M96 401L97 402L96 401M130 401L131 402L130 401M153 401L154 402L153 401M224 401L225 402L224 401z"/>
<path style="fill:#645958; stroke:none;" d="M89 402L90 403L89 402z"/>
<path style="fill:#9b9893; stroke:none;" d="M129 402L130 403L129 402M141 402L142 403L141 402z"/>
<path style="fill:#4c4037; stroke:none;" d="M152 402L154 404L152 402z"/>
<path style="fill:#645958; stroke:none;" d="M153 402L154 403L153 402z"/>
<path style="fill:#9b9893; stroke:none;" d="M223 402L224 403L223 402z"/>
<path style="fill:#4c4037; stroke:none;" d="M68 403L69 404L68 403z"/>
<path style="fill:#9b9893; stroke:none;" d="M70.6667 403.333L71.3333 403.667L70.6667 403.333M73 403L73 404L76 404L73 403M91 403L91 404L94 404L91 403M96 403L97 404L96 403z"/>
<path style="fill:#4c4037; stroke:none;" d="M97 403L98 404L97 403z"/>
<path style="fill:#645958; stroke:none;" d="M99 403L100 404L99 403z"/>
<path style="fill:#4c4037; stroke:none;" d="M106 403L107 404L106 403z"/>
<path style="fill:#645958; stroke:none;" d="M111 403L112 404L111 403z"/>
<path style="fill:#4c4037; stroke:none;" d="M119 403L120 404L119 403z"/>
<path style="fill:#9b9893; stroke:none;" d="M120 403L121 404L120 403M127 403L128 404L127 403M142 403L143 404L142 403z"/>
<path style="fill:#645958; stroke:none;" d="M150 403L151 404L150 403z"/>
<path style="fill:#9b9893; stroke:none;" d="M154 403L155 404L154 403M156.667 403.333L157.333 403.667L156.667 403.333M159 403L160 404L159 403z"/>
<path style="fill:#645958; stroke:none;" d="M165 403L166 404L165 403z"/>
<path style="fill:#4c4037; stroke:none;" d="M180 403L181 404L180 403z"/>
<path style="fill:#9b9893; stroke:none;" d="M181 403L181 404L187 404L181 403z"/>
<path style="fill:#645958; stroke:none;" d="M209 403L210 404L209 403z"/>
<path style="fill:#9b9893; stroke:none;" d="M210 403L211 404L210 403M221 403L222 404L221 403z"/>
<path style="fill:#4c4037; stroke:none;" d="M222 403L223 404L222 403M124 404L125 405L124 404M145 404L146 405L145 404z"/>
<path style="fill:#645958; stroke:none;" d="M146 404L147 405L146 404z"/>
<path style="fill:#4c4037; stroke:none;" d="M147 404L148 405L147 404M213 404L214 405L213 404z"/>
<path style="fill:#645958; stroke:none;" d="M214 404L215 405L214 404z"/>
<path style="fill:#9b9893; stroke:none;" d="M215.667 404.333L216.333 404.667L215.667 404.333z"/>
<path style="fill:#645958; stroke:none;" d="M217.667 404.333L218.333 404.667L217.667 404.333z"/>
<path style="fill:#4c4037; stroke:none;" d="M219 404L220 405L219 404z"/>
<path style="fill:#9b9893; stroke:none;" d="M0 416L0 419L1 419L0 416z"/>
<path style="fill:#645958; stroke:none;" d="M12 483L13 484L12 483z"/>
<path style="fill:#fafafa; stroke:none;" d="M0 485L0 499L6 499L6 498L0 485z"/>
</svg>
