<?xml version="1.0" standalone="yes"?>
<svg xmlns="http://www.w3.org/2000/svg" width="309" height="497">
<path style="fill:#fdfdfd; stroke:none;" d="M0 0L0 323L1 323C1.05778 316.02 1.48582 300.903 5.74228 295.264C14.1945 284.067 44.4777 288.538 57 288C57 271.65 54.0884 250.735 59 236C60.5294 231.412 58.7132 217.928 63 219L67 202L78 173L86 160L86 156C90.8579 155.108 95.061 150.464 97 146L99 147L101 141L102 141L102 144L103 144L103 136L104 136C104.064 138.993 103.946 140.346 107 141L105 118L105 81L103 4L135 4L136 10C146.459 8.05841 163.316 15.2651 153 28L153 29L156 43C153.467 47.1875 152.792 52.6288 157 56L157 57L155 64L157 63L155 82L157 84L157 85L155 91L155 92L157 102L158 102L158 96L159 96L159 130L160 130L160 128L161 128L162 132L165 131C168.012 136.703 183.24 138.534 189 142.028C204.6 151.489 218.66 164.724 231.028 178C235.736 183.054 242.711 189.499 245 196L247 195C251.595 215.277 265.765 234.691 266 256L267 256L267 254L268 254L273 275C275.896 278.676 275.204 286.139 279.314 288.632C288.488 294.197 306.224 284.295 307.895 301C308.224 304.292 308 307.694 308 311L309 311L309 0L0 0z"/>
<path style="fill:#c6c3c3; stroke:none;" d="M103 4L104 17L105 17L106 4L103 4z"/>
<path style="fill:#a39e98; stroke:none;" d="M60 249L61 249C62.5833 236.483 66.3889 225.104 69.6258 213C77.1605 184.825 84.5242 157.295 113 144C115.076 156.592 110.102 168.148 114.764 181C117.655 188.971 140.291 212.433 147.427 197.981C149.368 194.05 148.015 190.124 148.478 186C149.853 173.766 149 162.307 149 150L152 151C152.545 147.143 151.529 145.599 148 144C149.425 132.327 155.113 137.245 164 135L164 134L149.47 129.062L148 105L147 105C147 122.568 136.935 121 122 121L122 120C127.217 119.999 138.62 121.093 142.258 116.682C146.135 111.981 144 100.764 144 95L143 95L140.397 116.397L119 120L119 121L146 121C143.479 131.971 144.957 146.776 146.285 158C147.062 164.563 148.625 173.771 145.772 179.985C142.453 187.21 125.517 189.098 119.39 184.258C115.756 181.386 113.957 174.431 113.545 170C112.458 158.31 115.232 145.836 114.947 134C114.571 118.404 112.157 102.588 111.09 87C109.246 60.0809 109.385 32.7817 106 6L117 5C114.048 3.76111 107.389 2.68954 105.603 6.3179C102.666 12.2872 105.829 21.8861 106.7 28C107.732 35.2435 106.591 42.7139 107.09 50C108.388 68.9575 109.027 88.1124 111.285 107C112.233 114.919 115.441 129.411 112.397 136.896C108.826 145.675 92.6336 151.935 86.4784 160.015C69.944 181.718 57.8787 221.893 60 249z"/>
<path style="fill:#54463f; stroke:none;" d="M106 6C109.344 48.3723 113.754 91.5356 114.871 134C115.183 145.875 112.465 158.23 113.299 170C113.607 174.351 115.478 182.32 119.39 184.821C125.167 188.514 142.649 187.536 145.772 180.956C148.873 174.42 147.108 163.947 146.285 157C144.966 145.851 144.178 132.04 146 121L119 121L119 120C123.726 118.875 139.146 120.255 141.397 115.682C143.095 112.231 141.858 106.748 142.04 103C142.421 95.1588 144.73 88.0432 143.806 80C143.369 76.1973 140.34 69.6849 141.442 66.1127C142.489 62.7216 146.175 62.79 149 63C149.032 50.9694 150.635 38.9859 150.986 27C151.091 23.4138 152.815 17.6133 151.243 14.3179C147.892 7.29376 135.386 15.2663 132 4L106 6z"/>
<path style="fill:#a39e98; stroke:none;" d="M132 4C134.26 16.3325 148.126 6.95483 151.168 15.1481C152.889 19.783 150.858 28.1472 150.285 33C149.132 42.7751 149.005 53.1414 149 63C135.352 60.496 143.995 80.1079 144 88L145 88C145 82.1854 143.777 75.5066 148 71L149 100L150 100L151.884 36L151.972 12.4337L138.055 9.6821L132 4z"/>
<path style="fill:#c6c3c3; stroke:none;" d="M133 4L135 10L136 10L133 4M138 9L138 10L150 10L138 9M150.667 10.3333L151.333 10.6667L150.667 10.3333M152 11L153 12L152 11M153 12L150 100L149 100L148 71C144.159 72.4083 145 76.3672 145 80C145 88.7009 147.563 95.8574 146.167 105C145.79 107.463 147.307 118.015 143 115C138.301 120.642 128.904 119.995 122 120L122 121C128.061 121 142.038 123.489 145.972 117.581C148.075 114.423 147 108.629 147 105L148 105L148.753 129.076L164 134L164 135C154.737 136.474 148.81 132.409 148 144L152 151L149 150C149 163.75 153.295 184.25 147.413 196.995C140.479 212.02 118.522 189.101 115.133 181C109.751 168.132 115.851 156.408 113 144C82.9786 153.5 76.6075 187.601 69.091 214C65.7695 225.666 61.9634 236.793 61 249L60 249L62 218L61 218L57.1042 241L57 288L51 288L51 289C61.1897 291.508 59.1435 282.953 59 276L60 276C61.0501 281.115 61.119 288.019 67 289L67 288L64 288L64.2052 242L72 210L73 210L73 212L74 212L81 194L82 194L82 196L83 196L83 192L85 193L85 189L86 189L86 192L87 192L87 186L88 186L88 188L89 188L89 184L90 184L91 186L102 178L106 180L109 183L109 189L110 189L110 187L111 187L111 192L115 193L116 204L117 204L117 201L118 201L118 207L119 207L119 205L120 205C120.314 207.595 120.46 207.523 123 207C122.212 208.969 124.232 212.84 125 209L126 209L126 213L127 213L127 210L128 210L128 213L143 211L143 213L145 209L147 211L148 211L148 207L150 205C157.766 203.673 158.995 196.763 159 190L160 190L160 199L161 199L161 174L162 174L162 178L163 178L163 162L164 162L164 169L165 169L165 159L166 159L166 161L167 161L167 155L168 155L168 159L169 159L172 154L172 153L170 153L170 152L173 150L174 150L175 153L178 153C176.188 149.96 169.57 142.71 166 145L165 145L165 141L164 141L162 143L161 137C180.639 140.056 204.834 152.161 212 172L216 172C216.195 173.806 216.727 176.929 218 174L236 195L238 194L240 201L241 201L241 199L242 199L251 228L255.44 242.715L265 284L266 284L266 282L267 282L269 289L142 289L72 288L72 289C93.582 293.007 118.06 290 140 290L271 290C270.037 280.392 264.697 271.386 262.528 262C258.355 243.945 255.669 223.806 247.342 207C241.238 194.682 231.686 184.866 222.536 174.83C216.131 167.804 208.686 158.132 200 154L200 153C207.481 156.173 213.951 163.07 219.829 168.562C229.998 178.062 242.149 190.2 248.105 203C254.364 216.45 257.509 232.821 261.986 247C265.284 257.444 268.913 267.535 272.153 277.985C273.861 283.497 274.458 289.49 281 290L281 289L273 275L268 254L267 254L267 256L266 256C265.93 235.475 253.789 213.979 247 195L245 196C243.192 189.352 236.558 183.01 231.946 178C219.633 164.624 205.028 150.394 189 141.515C181.98 137.626 170.562 136.637 165 131L162 132L161 128L160 128L160 130L159 130L159 96L158 96L158 102L157 102L155 92L155 91L157 90L157 85L157 84L155 82C158.816 81.3639 157 66.7678 157 63L155 64L157 57L157 56C153.638 51.8892 154.122 47.6798 156 43L153 29L153 28C156.286 24.5741 155.533 15.7079 153 12M104 20L105 21L104 20M105 22L105 118L107 141L104 136L103 136L103 144L102 144L102 141L101 141L99 147L97 146L86 156L86 160L102.004 146.344L112.397 137.791L112.001 116L107.17 50L105 22M156 50L157 51L156 50M156 52L156 55L157 55L156 52M103 57L103 117L104 117L104 76L103 57z"/>
<path style="fill:#fdfdfd; stroke:none;" d="M153 58L152 63L153 58z"/>
<path style="fill:#c6c3c3; stroke:none;" d="M142 68L146 64L142 68z"/>
<path style="fill:#fdfdfd; stroke:none;" d="M155 69L155 72L156 72L155 69M155.333 74.6667L155.667 75.3333L155.333 74.6667z"/>
<path style="fill:#181c19; stroke:none;" d="M142.333 79.6667L142.667 80.3333L142.333 79.6667z"/>
<path style="fill:#fdfdfd; stroke:none;" d="M146 85L147 86L146 85M145 87L144 117L145 117L147 87L145 87z"/>
<path style="fill:#c6c3c3; stroke:none;" d="M144 88L144 112L145 112L144 88M157 91L158 92L157 91z"/>
<path style="fill:#a39e98; stroke:none;" d="M149 102L149 111L150 111L149 102z"/>
<path style="fill:#c6c3c3; stroke:none;" d="M160 103L161 104L160 103z"/>
<path style="fill:#fdfdfd; stroke:none;" d="M157 106L157 110L158 110L157 106z"/>
<path style="fill:#181c19; stroke:none;" d="M133 116L133 117L137 117L133 116z"/>
<path style="fill:#fdfdfd; stroke:none;" d="M108 119L108 123L109 123L108 119z"/>
<path style="fill:#181c19; stroke:none;" d="M115 119L115 122L117 122L117 119L115 119M127 124L127 125L142 124L127 124z"/>
<path style="fill:#fdfdfd; stroke:none;" d="M157 123L157 126L158 126L157 123z"/>
<path style="fill:#c6c3c3; stroke:none;" d="M105 124L106 125L105 124M103 126L104 127L103 126M103 128L104 129L103 128M101.333 130.667L101.667 131.333L101.333 130.667z"/>
<path style="fill:#fdfdfd; stroke:none;" d="M106 130L106 135L107 135L106 130z"/>
<path style="fill:#a39e98; stroke:none;" d="M166 135L168 137L168 135L166 135M170 135L171 136L170 135z"/>
<path style="fill:#fdfdfd; stroke:none;" d="M161 137L162 143L164 141L165 141L165 145L166 145L167 143L178 153L174 150L173 150L170 152L170 153L172 153L172 154C168.946 154.654 169.064 156.007 169 159L168 159L168 155L167 155L167 161L166 161L166 159L165 159L165 169L164 169L164 162L163 162L163 178L162 178L162 174L161 174L161 199L160 199L160 190L159 190C158.977 196.535 156.935 202.922 150 205L150 208L148 207L148 211L147 211L145 209L143 213L143 211C138.598 213.448 131.071 214.737 128 210L127 210L127 213L126 213L126 209L125 209L124 211L123 207L120 205L119 205L119 207L118 207L118 201L117 201L117 204L116 204L115 193L111 192L111 187L110 187L110 189L109 189L109 183L106 180L102 178L90 184L89 184L89 188L88 188L88 186L87 186L87 192L86 192L86 189L85 189L85 193L83 192L83 196L82 196L82 194L81 194L74 212L73 212L73 210L72 210L64.2052 241L64 288L137 289L269 289L267 282L266 282L266 284L265 284L255.44 241.83L251 228L242 199L241 199L241 201L240 201L238 194L236 195C233.856 187.123 224.196 179.119 218 174L216 172L212 172C207.338 152.236 179.676 138.491 161 137z"/>
<path style="fill:#a39e98; stroke:none;" d="M174.667 138.333L175.333 138.667L174.667 138.333M179.667 139.333L180.333 139.667L179.667 139.333M183 141L186 144L183 141M187.667 143.333L188.333 143.667L187.667 143.333M189 145L189 146L193 146L189 145z"/>
<path style="fill:#fdfdfd; stroke:none;" d="M169 146L170 147L169 146z"/>
<path style="fill:#a39e98; stroke:none;" d="M193 147L197 150L193 147z"/>
<path style="fill:#fdfdfd; stroke:none;" d="M171 148L172 149L171 148z"/>
<path style="fill:#c6c3c3; stroke:none;" d="M179 149L180 150L179 149M179 151L180 152L179 151M187 151L188 152L187 151z"/>
<path style="fill:#a39e98; stroke:none;" d="M197 151L197 152L200 152L197 151z"/>
<path style="fill:#fdfdfd; stroke:none;" d="M100 153L100 158L105 152L100 153M106.333 152.667L106.667 153.333L106.333 152.667z"/>
<path style="fill:#c6c3c3; stroke:none;" d="M183 153L183 156L184 156L183 153M190 153L190 156L192 153L190 153z"/>
<path style="fill:#a39e98; stroke:none;" d="M200 153L200 154C217.655 166.532 238.853 189.09 247.815 209C255.437 225.933 258.388 245.086 262.528 263C264.64 272.139 269.41 280.76 271 290L113 290L75 289.424L63.6034 287.397L60 276L59 276C59.0431 281.206 61.3619 288.775 54 289L54 290L81 291L131 291L293 291L293 290C288.651 290 281.088 291.444 277.317 288.973C274.203 286.933 273.181 280.355 272.153 276.996C269.045 266.843 265.381 257.176 262.304 247C257.927 232.528 254.47 215.679 248.105 202C242.775 190.545 232.024 179.786 223.196 171C217.05 164.883 208.599 155.249 200 153z"/>
<path style="fill:#fdfdfd; stroke:none;" d="M98 154C92.2706 158.889 86.7145 165.528 85 173C91.3311 170.933 100.846 160.991 98 154z"/>
<path style="fill:#c6c3c3; stroke:none;" d="M185.333 154.667L185.667 155.333L185.333 154.667M194 155L193 158L197 159L197 160L193 160L193 161L201 163L201 159L198 160L199 157L198 157L198 159L197 159L194 155M84 159C77.333 176.078 59.7468 199.698 63 219C70.757 206.303 72.5552 187.894 78.858 174C80.8196 169.676 86.5576 163.497 84 159M97 159L98 160L97 159M202.333 161.667L202.667 162.333L202.333 161.667M208 166L209 167L208 166M208 168L209 169L208 168z"/>
<path style="fill:#fdfdfd; stroke:none;" d="M89 171L90 172L89 171z"/>
<path style="fill:#c6c3c3; stroke:none;" d="M219 177L220 178L219 177z"/>
<path style="fill:#fdfdfd; stroke:none;" d="M96 179L94 180L94 181L96 179z"/>
<path style="fill:#c6c3c3; stroke:none;" d="M221 179L222 180L221 179z"/>
<path style="fill:#fdfdfd; stroke:none;" d="M159.333 180.667L159.667 181.333L159.333 180.667z"/>
<path style="fill:#c6c3c3; stroke:none;" d="M103 181L104 182L103 181z"/>
<path style="fill:#fdfdfd; stroke:none;" d="M91 182L92 183L91 182z"/>
<path style="fill:#181c19; stroke:none;" d="M129 183L129 184L142 184L142 182L129 183z"/>
<path style="fill:#c6c3c3; stroke:none;" d="M107 185L108 186L107 185z"/>
<path style="fill:#fdfdfd; stroke:none;" d="M115 197L116 198L115 197M154 201L155 202L154 201M152 203L153 204L152 203M74 207L75 208L74 207M70 216L71 217L70 216M68 222L69 223L68 222M66 226L67 227L66 226z"/>
<path style="fill:#a39e98; stroke:none;" d="M59 250L59 262L60 262L62 250L59 250z"/>
<path style="fill:#c6c3c3; stroke:none;" d="M263 276L264 277L263 276M68 288L68 289L71 289L68 288M13 290L13 291L24 290L13 290z"/>
<path style="fill:#a39e98; stroke:none;" d="M0 371L0 374C7.49083 378.376 4 397.231 4 405C4 425.717 5 446.326 5 467C5 476.573 4.7892 488.482 12.7245 495.397C16.9225 499.054 27.7354 497 33 497L88 497L306 497C310.128 478.941 308.367 459.355 308.34 441C308.29 407.341 309.013 373.71 309 340C308.995 328.093 312.512 295.648 299 291L299 292C309.703 297.87 306.996 321.137 307 332L307 449C307 459.095 311.779 486.682 302.867 493.272C297.759 497.049 289.952 496 284 496L242 496C186.875 496 132.074 495 77 495C61.6315 495 46.3597 494.075 31 494.001C24.1361 493.968 15.1621 493.692 10.4336 487.892C3.2762 479.113 6 454.94 6 444C6 408.647 5 373.389 5 338C5 327.497 1.6344 306.002 7.74228 297.105C13.9629 288.044 30.6382 291 40 291C43.8904 291 49.2808 292.112 52 289C40.3175 291.161 14.7689 283.479 6.68827 295.554C3.22255 300.733 4.06611 309.086 3.99614 315C3.85432 326.987 3 338.966 3 351C3 356.828 5.60612 367.831 0 371z"/>
<path style="fill:#c6c3c3; stroke:none;" d="M42 289L42 290L50 290L42 289M282.667 289.333L283.333 289.667L282.667 289.333z"/>
<path style="fill:#54463f; stroke:none;" d="M52 290.513C41.0642 291.253 15.0829 286.204 7.74228 296.214C5.28712 299.561 6.17603 304.126 5.91049 308C5.24541 317.703 5 327.247 5 337C5 373.055 6 408.983 6 445C6 455.414 3.08783 482.108 11.2284 489.581C16.7995 494.695 26.0616 493.768 33 494.039C50.3186 494.713 67.6303 495 85 495C133.692 495 182.258 496 231 496C252.329 496 275.915 498.85 297 495.699C312.939 493.317 307 463.992 307 452L307 335C307 325.625 309.831 300.28 302.581 293.653C298.033 289.495 289.649 291 284 291C268.634 291 253.296 291.814 238 291.996C176.448 292.728 113.394 286.36 52 290.513z"/>
<path style="fill:#c6c3c3; stroke:none;" d="M293 290L293 291L301 291L293 290M9 293L12 291L9 293M301 291L302 292L301 291z"/>
<path style="fill:#181c19; stroke:none;" d="M281 292L281 293L297 293L281 292z"/>
<path style="fill:#c6c3c3; stroke:none;" d="M303 292L304 293L303 292M6 293L4 304L5 304L8 293L6 293M304 293L306 295L306 293L304 293M306 295L307 305L308 305L306 295M3 304L0 371C5.85355 369.051 3.00033 360.127 3 355C2.99909 340.77 8.45629 317.003 3 304z"/>
<path style="fill:#181c19; stroke:none;" d="M25 325C28.8244 324.322 46.3114 327.082 40.2878 334.397C37.54 337.733 27.9027 336 24 336L23.5748 443L25.1042 472.397L40 474.29L81 473.961L232 474.259L270 474.103L284.896 472.397L286.004 461L286 432L286 349L285 309C264.48 312.653 241.811 309.756 221 310.004C175.378 310.547 129.796 309 84 309C70.3096 309 56.7221 308 43 308C38.7254 308 31.1271 306.559 27.419 309.028C22.7863 312.112 23.6734 320.512 25 325z"/>
<path style="fill:#c6c3c3; stroke:none;" d="M308 311L308 331L309 331L308 311z"/>
<path style="fill:#54463f; stroke:none;" d="M276 326C273.377 324.883 270.721 323.422 268.004 322.573C259.982 320.067 256.386 340.114 269.981 335.687C271.787 335.098 273.491 334.46 274.436 332.698C275.467 330.776 275.599 328.116 276 326z"/>
<path style="fill:#a39e98; stroke:none;" d="M263 325C268.556 340.947 279.074 321.406 263 325M38 332C35.9845 327.915 23.3347 322.213 20.4969 328.549C18.7419 332.467 27.9277 333.504 30 333.312C32.6938 333.063 35.2871 332.236 38 332z"/>
<path style="fill:#c6c3c3; stroke:none;" d="M308 357L308 360L309 360L308 357z"/>
<path style="fill:#54463f; stroke:none;" d="M144 367L145 368L144 367z"/>
<path style="fill:#a39e98; stroke:none;" d="M144 404L145 404L145 368L151 368C145.245 365.67 144.035 370.073 144.001 375C143.934 384.666 144 394.334 144 404z"/>
<path style="fill:#54463f; stroke:none;" d="M107 368L107 369L111 369L107 368z"/>
<path style="fill:#fdfdfd; stroke:none;" d="M145 368L145 404L151 404C151 399.879 148.723 384.245 155.961 385.037C162.242 385.724 160 399.741 160 404L166 404C166 394.223 167.084 370.784 151 383L151 368L145 368z"/>
<path style="fill:#54463f; stroke:none;" d="M103 369L104 370L103 369z"/>
<path style="fill:#a39e98; stroke:none;" d="M104 369L105 370L104 369z"/>
<path style="fill:#fdfdfd; stroke:none;" d="M105 369.573C87.8186 374.426 93.0063 410.465 112.999 404.196C129.805 398.926 124.427 364.087 105 369.573z"/>
<path style="fill:#c6c3c3; stroke:none;" d="M112 369L113 370L112 369z"/>
<path style="fill:#a39e98; stroke:none;" d="M113 369L114 370L113 369z"/>
<path style="fill:#54463f; stroke:none;" d="M101 370L102 371L101 370z"/>
<path style="fill:#a39e98; stroke:none;" d="M115 370L116 371L115 370z"/>
<path style="fill:#54463f; stroke:none;" d="M151 370L151 377L152 377L151 370z"/>
<path style="fill:#a39e98; stroke:none;" d="M100 371L101 372L100 371z"/>
<path style="fill:#54463f; stroke:none;" d="M117 371L118 372L117 371z"/>
<path style="fill:#c6c3c3; stroke:none;" d="M128 371L128 372L134 372L128 371z"/>
<path style="fill:#54463f; stroke:none;" d="M134 371L135 372L134 371z"/>
<path style="fill:#c6c3c3; stroke:none;" d="M99 372L100 373L99 372z"/>
<path style="fill:#54463f; stroke:none;" d="M118 372L119 373L118 372z"/>
<path style="fill:#fdfdfd; stroke:none;" d="M128 372C127.902 380.866 125.468 391.253 129.148 399.945C131.547 405.611 139.822 406.786 141 400C131.403 399.259 131.299 384.74 141 384L141 380L134 380L134 372L128 372z"/>
<path style="fill:#a39e98; stroke:none;" d="M134 372L134 380L135 380L134 372z"/>
<path style="fill:#c6c3c3; stroke:none;" d="M98 373L99 374L98 373z"/>
<path style="fill:#54463f; stroke:none;" d="M119 373L120 374L119 373z"/>
<path style="fill:#c6c3c3; stroke:none;" d="M0 374C4.15847 412.961 0 454.77 0 494L1 494L1 491L2 491L2 497L3 497L4 495L13 497C11.2586 492.465 7.63658 488.689 6.41512 484C-2.7444 448.836 11.351 409.077 3 374L0 374z"/>
<path style="fill:#54463f; stroke:none;" d="M97 374L98 375L97 374z"/>
<path style="fill:#c6c3c3; stroke:none;" d="M106 374L107 375L106 374z"/>
<path style="fill:#a39e98; stroke:none;" d="M107 374L107 375L111 375L107 374z"/>
<path style="fill:#c6c3c3; stroke:none;" d="M119 374L120 375L119 374z"/>
<path style="fill:#54463f; stroke:none;" d="M105 375L104 377L105 375z"/>
<path style="fill:#181c19; stroke:none;" d="M106.144 376.032C98.5355 380.318 101.854 403.816 111.772 397.968C118.148 394.208 116.195 370.371 106.144 376.032z"/>
<path style="fill:#c6c3c3; stroke:none;" d="M112 375L113 376L112 375z"/>
<path style="fill:#a39e98; stroke:none;" d="M120 375L121 376L120 375z"/>
<path style="fill:#fdfdfd; stroke:none;" d="M0 376L0 379L1 379L0 376z"/>
<path style="fill:#a39e98; stroke:none;" d="M96 376L97 377L96 376z"/>
<path style="fill:#c6c3c3; stroke:none;" d="M113 376L114 377L113 376z"/>
<path style="fill:#a39e98; stroke:none;" d="M103 377L104 378L103 377M121 377L122 378L121 377z"/>
<path style="fill:#c6c3c3; stroke:none;" d="M308 377L308 384L309 384L308 377z"/>
<path style="fill:#54463f; stroke:none;" d="M95 378L96 379L95 378z"/>
<path style="fill:#a39e98; stroke:none;" d="M114 378L115 379L114 378z"/>
<path style="fill:#c6c3c3; stroke:none;" d="M121 378L122 379L121 378z"/>
<path style="fill:#a39e98; stroke:none;" d="M95 379L96 380L95 379z"/>
<path style="fill:#c6c3c3; stroke:none;" d="M102 379L103 380L102 379z"/>
<path style="fill:#54463f; stroke:none;" d="M114 379L115 380L114 379M122.333 379.667L122.667 380.333L122.333 379.667M125 379L125 380L128 380L125 379M135 379L135 380L141 380L135 379z"/>
<path style="fill:#a39e98; stroke:none;" d="M155 379L156 380L155 379z"/>
<path style="fill:#c6c3c3; stroke:none;" d="M156 379L157 380L156 379M159.667 379.333L160.333 379.667L159.667 379.333z"/>
<path style="fill:#a39e98; stroke:none;" d="M161 379L162 380L161 379z"/>
<path style="fill:#54463f; stroke:none;" d="M178 379L179 380L178 379z"/>
<path style="fill:#a39e98; stroke:none;" d="M179 379L180 380L179 379z"/>
<path style="fill:#c6c3c3; stroke:none;" d="M180 379L181 380L180 379z"/>
<path style="fill:#fdfdfd; stroke:none;" d="M192 399C184.02 401.111 179.72 401.239 176 393L192 393C191.861 377.423 171.897 374.752 171.044 391C170.423 402.832 189.812 412.23 192 399z"/>
<path style="fill:#c6c3c3; stroke:none;" d="M183.667 379.333L184.333 379.667L183.667 379.333z"/>
<path style="fill:#54463f; stroke:none;" d="M185 379L186 380L185 379M196 379L196 380L203 383C203.953 378.758 199.15 379.037 196 379M208 379L209 380L208 379z"/>
<path style="fill:#a39e98; stroke:none;" d="M209 379L209 380L212 380L209 379z"/>
<path style="fill:#54463f; stroke:none;" d="M212 379L213 380L212 379z"/>
<path style="fill:#c6c3c3; stroke:none;" d="M95 380L96 381L95 380z"/>
<path style="fill:#a39e98; stroke:none;" d="M102 380L103 381L102 380z"/>
<path style="fill:#c6c3c3; stroke:none;" d="M125 380L128 385L128 384L125 380z"/>
<path style="fill:#a39e98; stroke:none;" d="M153 380L154 381L153 380z"/>
<path style="fill:#54463f; stroke:none;" d="M163 380L164 381L163 380z"/>
<path style="fill:#a39e98; stroke:none;" d="M176 380L177 381L176 380M187 380L188 381L187 380M196 380L196 404L197 404L196 380z"/>
<path style="fill:#fdfdfd; stroke:none;" d="M197 380L197 404L203 404C203 395.744 201.349 384.475 213 386L213 380L203 383C202.271 379.597 200.194 380.013 197 380z"/>
<path style="fill:#54463f; stroke:none;" d="M206 380L207 381L206 380M102 381L103 382L102 381z"/>
<path style="fill:#a39e98; stroke:none;" d="M115.333 381.667L115.667 382.333L115.333 381.667M122 381L123 382L122 381z"/>
<path style="fill:#54463f; stroke:none;" d="M151 381L152 382L151 381z"/>
<path style="fill:#c6c3c3; stroke:none;" d="M152 381L153 382L152 381z"/>
<path style="fill:#a39e98; stroke:none;" d="M164 381L165 382L164 381z"/>
<path style="fill:#54463f; stroke:none;" d="M174 381L175 382L174 381z"/>
<path style="fill:#c6c3c3; stroke:none;" d="M188 381L189 382L188 381M205 381L206 382L205 381z"/>
<path style="fill:#54463f; stroke:none;" d="M94 382L94 385L95 385L94 382z"/>
<path style="fill:#c6c3c3; stroke:none;" d="M122 382L123 383L122 382M151 382L152 383L151 382z"/>
<path style="fill:#54463f; stroke:none;" d="M173 382L174 383L173 382M115 383L115 391L116 391L115 383z"/>
<path style="fill:#a39e98; stroke:none;" d="M165 383L166 384L165 383z"/>
<path style="fill:#c6c3c3; stroke:none;" d="M181 383L182 384L181 383z"/>
<path style="fill:#a39e98; stroke:none;" d="M190 383L191 384L190 383M125 384L126 385L125 384z"/>
<path style="fill:#c6c3c3; stroke:none;" d="M135 384L135 385L140 385L135 384z"/>
<path style="fill:#a39e98; stroke:none;" d="M140 384L141 385L140 384z"/>
<path style="fill:#c6c3c3; stroke:none;" d="M154 384L155 385L154 384z"/>
<path style="fill:#a39e98; stroke:none;" d="M155.667 384.333L156.333 384.667L155.667 384.333z"/>
<path style="fill:#c6c3c3; stroke:none;" d="M157 384L158 385L157 384z"/>
<path style="fill:#a39e98; stroke:none;" d="M172 384L173 385L172 384M179 384L180 385L179 384z"/>
<path style="fill:#181c19; stroke:none;" d="M177 389L186 389C184.17 382.977 179.679 384.229 177 389z"/>
<path style="fill:#a39e98; stroke:none;" d="M184 384L185 385L184 384z"/>
<path style="fill:#54463f; stroke:none;" d="M191 384L192 390L193 390L191 384z"/>
<path style="fill:#a39e98; stroke:none;" d="M94 385L94 389L95 389L94 385z"/>
<path style="fill:#c6c3c3; stroke:none;" d="M101 385L101 388L102 388L101 385z"/>
<path style="fill:#a39e98; stroke:none;" d="M134 385L134 396L135 396L134 385M152 385L153 386L152 385z"/>
<path style="fill:#54463f; stroke:none;" d="M158 385L159 386L158 385M171 385L172 386L171 385M178 385L179 386L178 385z"/>
<path style="fill:#a39e98; stroke:none;" d="M185 385L186 386L185 385z"/>
<path style="fill:#c6c3c3; stroke:none;" d="M191 385L192 386L191 385M207 385L208 386L207 385z"/>
<path style="fill:#a39e98; stroke:none;" d="M208.667 385.333L209.333 385.667L208.667 385.333z"/>
<path style="fill:#c6c3c3; stroke:none;" d="M210 385L211 386L210 385M308 385L308 413L309 413L308 385z"/>
<path style="fill:#54463f; stroke:none;" d="M151 386L151 391L152 391L151 386z"/>
<path style="fill:#c6c3c3; stroke:none;" d="M159 386L160 387L159 386z"/>
<path style="fill:#54463f; stroke:none;" d="M166 386L166 405L167 405L166 386z"/>
<path style="fill:#c6c3c3; stroke:none;" d="M171 386L172 387L171 386z"/>
<path style="fill:#a39e98; stroke:none;" d="M177 386L178 387L177 386M205 386L206 387L205 386z"/>
<path style="fill:#54463f; stroke:none;" d="M159 387L159 405L160 405L159 387M177 387L178 388L177 387z"/>
<path style="fill:#a39e98; stroke:none;" d="M186 387L186 390L187 390L186 387z"/>
<path style="fill:#54463f; stroke:none;" d="M204 387L205 388L204 387M170 388L171 389L170 388M203 388L203 395L204 395L203 388M94 389L94 392L95 392L94 389z"/>
<path style="fill:#a39e98; stroke:none;" d="M170 389L170 396L171 396L170 389z"/>
<path style="fill:#54463f; stroke:none;" d="M177 389L177 390L186 390L177 389z"/>
<path style="fill:#a39e98; stroke:none;" d="M192 390L192 393L193 393L192 390M115.333 391.667L115.667 392.333L115.333 391.667z"/>
<path style="fill:#c6c3c3; stroke:none;" d="M122 391L123 392L122 391z"/>
<path style="fill:#54463f; stroke:none;" d="M102 392L103 393L102 392z"/>
<path style="fill:#a39e98; stroke:none;" d="M122.333 392.667L122.667 393.333L122.333 392.667z"/>
<path style="fill:#c6c3c3; stroke:none;" d="M95.3333 393.667L95.6667 394.333L95.3333 393.667z"/>
<path style="fill:#a39e98; stroke:none;" d="M102 393L103 394L102 393z"/>
<path style="fill:#c6c3c3; stroke:none;" d="M176 393L177 394L176 393z"/>
<path style="fill:#54463f; stroke:none;" d="M177 393L177 394L193 394L177 393M122 394L123 395L122 394M95 395L96 396L95 395M103 395L104 396L103 395z"/>
<path style="fill:#a39e98; stroke:none;" d="M114 395L115 396L114 395M103 396L104 397L103 396M121 396L122 397L121 396z"/>
<path style="fill:#c6c3c3; stroke:none;" d="M134.333 396.667L134.667 397.333L134.333 396.667z"/>
<path style="fill:#54463f; stroke:none;" d="M170 396L171 397L170 396M177 396L178 397L177 396z"/>
<path style="fill:#a39e98; stroke:none;" d="M96 397L97 398L96 397z"/>
<path style="fill:#54463f; stroke:none;" d="M104 397L105 398L104 397z"/>
<path style="fill:#a39e98; stroke:none;" d="M113 397L114 398L113 397z"/>
<path style="fill:#54463f; stroke:none;" d="M121 397L122 398L121 397z"/>
<path style="fill:#c6c3c3; stroke:none;" d="M177 397L178 398L177 397z"/>
<path style="fill:#54463f; stroke:none;" d="M105 398L106 399L105 398z"/>
<path style="fill:#a39e98; stroke:none;" d="M112 398L113 399L112 398M120 398L121 399L120 398z"/>
<path style="fill:#c6c3c3; stroke:none;" d="M128 398L129 399L128 398z"/>
<path style="fill:#54463f; stroke:none;" d="M135 398L136 399L135 398z"/>
<path style="fill:#a39e98; stroke:none;" d="M171 398L172 399L171 398z"/>
<path style="fill:#54463f; stroke:none;" d="M178 398L179 399L178 398M191 398L192 399L191 398z"/>
<path style="fill:#a39e98; stroke:none;" d="M97 399L98 400L97 399z"/>
<path style="fill:#c6c3c3; stroke:none;" d="M106 399L107 400L106 399z"/>
<path style="fill:#a39e98; stroke:none;" d="M107 399L108 400L107 399z"/>
<path style="fill:#54463f; stroke:none;" d="M108.667 399.333L109.333 399.667L108.667 399.333z"/>
<path style="fill:#a39e98; stroke:none;" d="M110 399L111 400L110 399M128.333 399.667L128.667 400.333L128.333 399.667z"/>
<path style="fill:#c6c3c3; stroke:none;" d="M135 399L136 400L135 399z"/>
<path style="fill:#54463f; stroke:none;" d="M139.667 399.333L140.333 399.667L139.667 399.333M171 399L172 400L171 399z"/>
<path style="fill:#a39e98; stroke:none;" d="M179 399L180 400L179 399M189 399L190 400L189 399z"/>
<path style="fill:#54463f; stroke:none;" d="M203 399L203 404L204 404L203 399z"/>
<path style="fill:#c6c3c3; stroke:none;" d="M98 400L99 401L98 400z"/>
<path style="fill:#54463f; stroke:none;" d="M119 400L120 401L119 400M151 400L152 401L151 400z"/>
<path style="fill:#a39e98; stroke:none;" d="M172 400L173 401L172 400z"/>
<path style="fill:#c6c3c3; stroke:none;" d="M180 400L181 401L180 400z"/>
<path style="fill:#a39e98; stroke:none;" d="M181.667 400.333L182.333 400.667L181.667 400.333z"/>
<path style="fill:#54463f; stroke:none;" d="M183 400L184 401L183 400z"/>
<path style="fill:#a39e98; stroke:none;" d="M184.667 400.333L185.333 400.667L184.667 400.333z"/>
<path style="fill:#c6c3c3; stroke:none;" d="M186.667 400.333L187.333 400.667L186.667 400.333M99 401L100 402L99 401z"/>
<path style="fill:#54463f; stroke:none;" d="M118 401L119 402L118 401z"/>
<path style="fill:#c6c3c3; stroke:none;" d="M129 401L130 402L129 401M173 401L174 402L173 401M100 402L101 403L100 402z"/>
<path style="fill:#54463f; stroke:none;" d="M117 402L118 403L117 402M129 402L130 403L129 402M151.333 402.667L151.667 403.333L151.333 402.667z"/>
<path style="fill:#c6c3c3; stroke:none;" d="M174 402L175 403L174 402z"/>
<path style="fill:#a39e98; stroke:none;" d="M101 403L102 404L101 403z"/>
<path style="fill:#c6c3c3; stroke:none;" d="M115 403L116 404L115 403z"/>
<path style="fill:#54463f; stroke:none;" d="M130 403L131 404L130 403z"/>
<path style="fill:#a39e98; stroke:none;" d="M175 403L176 404L175 403M191 403L192 404L191 403z"/>
<path style="fill:#54463f; stroke:none;" d="M103 404L104 405L103 404z"/>
<path style="fill:#c6c3c3; stroke:none;" d="M104 404L105 405L104 404M112 404L113 405L112 404z"/>
<path style="fill:#a39e98; stroke:none;" d="M113 404L114 405L113 404z"/>
<path style="fill:#54463f; stroke:none;" d="M114 404L115 405L114 404z"/>
<path style="fill:#a39e98; stroke:none;" d="M132 404L133 405L132 404z"/>
<path style="fill:#c6c3c3; stroke:none;" d="M133 404L134 405L133 404M139 404L140 405L139 404z"/>
<path style="fill:#a39e98; stroke:none;" d="M140 404L141 405L140 404z"/>
<path style="fill:#54463f; stroke:none;" d="M144 404L145 405L144 404z"/>
<path style="fill:#c6c3c3; stroke:none;" d="M145 404L145 405L151 405L145 404M160 404L160 405L166 405L160 404z"/>
<path style="fill:#a39e98; stroke:none;" d="M177 404L178 405L177 404z"/>
<path style="fill:#c6c3c3; stroke:none;" d="M178 404L179 405L178 404z"/>
<path style="fill:#a39e98; stroke:none;" d="M188 404L189 405L188 404z"/>
<path style="fill:#54463f; stroke:none;" d="M189 404L190 405L189 404M196 404L197 405L196 404z"/>
<path style="fill:#c6c3c3; stroke:none;" d="M197 404L197 405L203 405L197 404z"/>
<path style="fill:#54463f; stroke:none;" d="M107 405L107 406L111 406L107 405M136 405L137 406L136 405M180 405L180 406L185 406L180 405z"/>
<path style="fill:#c6c3c3; stroke:none;" d="M308 430L308 433L309 433L308 430M308 438L308 444L309 444L308 438M308 451L308 460L309 460L308 451z"/>
<path style="fill:#fdfdfd; stroke:none;" d="M0 463L0 466L1 466L0 463z"/>
<path style="fill:#c6c3c3; stroke:none;" d="M308 463L308 466L309 466L308 463M308 469L306 497C310.996 495.93 310.43 473.217 308 469z"/>
<path style="fill:#fdfdfd; stroke:none;" d="M0.333333 475.667L0.666667 476.333L0.333333 475.667M1 491L0 497L1 491M3.33333 495.667L3.66667 496.333L3.33333 495.667z"/>
</svg>
