<?xml version="1.0" standalone="yes"?>
<svg xmlns="http://www.w3.org/2000/svg" width="321" height="498">
<path style="fill:#fafafa; stroke:none;" d="M0 0L0 498L17 498L13 493L13 492L13 491L11.9992 462L11 406L10.6821 378.147L4 370L11 369C7.15429 357.463 8.38964 331.441 11 321C12.6913 314.235 9.3479 305.365 12 299C17.3821 286.083 38.1227 289 51 289C54.8487 289 64.9286 290.798 67 287C68.2961 284.624 65 279.284 65 277C65 266.917 63.3332 251.667 66 241C73.521 210.916 78.4404 184.339 94 161C98.8923 153.662 106.439 148.67 114 143C117.369 140.474 117.507 137.377 120 138L113 4L142 4C144.277 14.9178 157.765 5.29132 161.393 15.0193C163.591 20.9142 160.609 30.71 160.455 37C160.029 54.4504 161.538 72.6078 160 90L160 93L162 96L162 130L185 137L184 140L163 136C165.276 140.267 169.93 145.34 175 145L177 149L174 149L170 151L167.154 163.015L163 194L164 194L164 192L165 192L165 197L156 204L150 210L145 208C135.494 207.662 128.888 201.034 127 192L125 193L119 164L116 170L115 170L115 166L112 166C110.934 167.684 105.354 171.407 105.457 166.812C105.513 164.288 108.031 161.313 109 159C115.516 157.943 121.837 151.748 120 145C105.644 152.48 95.4333 161.509 89.7917 177C88.6981 180.003 83.5025 191.25 88 192L85 201C81.1183 200.907 81.1759 205.912 79.9722 209C76.8537 217 74 225.433 74 234L72 233L72 244L70 243L70 283L72 282L73.473 288.397L87 289L120 289L225 289.004L279 289L273 270L271 271C270.561 250.389 261.893 219.654 251.417 201.91C247.671 195.566 242.782 187.232 236 184C235.429 178.751 228.393 174.122 224.88 170.385C213.545 158.325 201.018 145.454 185 140L191 141C200.244 141.327 210.44 152.556 217.17 158.235C239.493 177.072 263.986 201.981 266 233L267 233L267 230L268 230L268 238L269 238L269 236L270 236L270 246L271 246L271 244L272 244C272.1 255.152 277.688 263.638 280.549 274C281.747 278.339 282.575 286.133 286.549 288.972C295.797 295.578 310.959 283.614 315.387 300C317.446 307.624 316.545 317.099 317.09 325C318.559 346.334 317.829 367.656 317.259 389C316.292 425.233 320.568 461.854 316 498L321 498L321 0L0 0z"/>
<path style="fill:#9f9b95; stroke:none;" d="M113 4L120 138C113.273 139.388 106.188 147.756 101.004 152.244C76.4729 173.481 68.0995 219.234 65.1698 250C64.3686 258.414 64.6066 267.582 65.3086 276C65.5712 279.148 67.2414 283.858 65.2269 286.682C62.6752 290.259 55.7756 289 52 289C41.7295 289 18.5316 285.322 13.1481 297.094C10.5923 302.683 11.3257 310.937 10.9105 317C9.84311 332.587 6.53346 353.889 11 369L4 370L10.8519 380.019L11.6651 456L12.2855 478L13 491L13 492L13 493C20.2979 499.668 28.4858 498 38 498L93 498L316 498C322.548 462.726 316.641 424.669 317.455 389C317.95 367.334 318.579 345.628 317.09 324C316.536 315.958 317.68 305.627 315.08 298.004C310.391 284.256 296.039 294.534 287.299 288.972C283.169 286.344 281.864 278.383 280.791 274C278.255 263.638 272.259 255.054 272 244L271 244L271 246L270 246L270 236L269 236L269 238L268 238L268 230L267 230L267 233L266 233C265.084 201.978 239.453 175.953 217.17 157.475C210.37 151.837 200.352 140.796 191 141C189.166 138.477 187.619 138.384 185 140C201.932 148.466 213.749 159.388 226 173C229.397 176.774 236.799 180.804 236 184C254.99 197.666 259.792 223.887 265.285 245C267.478 253.431 270.601 262.264 271 271L273 270C273.024 277.104 275.058 283.116 279 289C261.071 291.266 242.947 289.087 225 289.001C190.002 288.832 154.999 289 120 289L84 289C77.4398 289 71.7893 289.998 72 282L70 283L70 243L72 244L72 233L74 234C74 224.414 77.4467 217.528 81 209C82.5937 205.175 81.0429 200.011 85 201L88 192C83.4548 192 89.0685 179.928 90.1667 177C96.3247 160.578 107.104 155.181 120 145C121.199 151.523 115.082 157.249 109 159C107.643 161.324 103.833 164.977 104.444 167.889C105.341 172.158 111.42 168.72 112 166L115 166L115 170L116 170L119 164L125 193L127 192C128.09 200.879 135.451 209.178 145 208L150 210L156 204L165 197L165 192L164 192L164 194L163 194L167.335 163.001L170 151L177 149L175 145L172 146L163 136C168.04 136.575 182.043 141.046 185 137L162 130L162 96L160 93C162.006 91.8734 162.006 91.1266 160 90L160 72L160.87 34L160.972 13.1481L147.044 9.6821L140 4C143.094 15.7128 155.244 7.03525 159.047 14.2678C160.816 17.6313 159.036 23.3036 159 27C158.881 39.3203 157.034 51.676 157 64C154.201 62.8376 149.953 62.0477 149.016 66.1898C148.218 69.7184 151.256 75.2888 151.714 79C152.75 87.4065 150.439 94.8017 150.04 103C149.86 106.706 151.141 112.432 148.972 115.682C145.592 120.748 132.366 118.414 127 120L127 121C135.065 123.384 146.074 122.683 154 120C152.574 132.077 153.673 145.843 154.83 158C155.532 165.374 157.41 176.913 152.291 182.856C146.623 189.436 127.727 188.318 124.133 179.985C118.435 166.767 123.286 150.026 122.745 136C121.577 105.744 118.98 75.2145 116.91 45C116.158 34.0179 108.302 7.3905 122 5L113 4z"/>
<path style="fill:#625655; stroke:none;" d="M154 120L148 121L148 122L152 123L144 131L146 128L151 130C147.68 145.317 159.594 167.175 151.14 181.231C147.967 186.507 132.958 186.998 128.225 183.397C124.903 180.869 123.337 174.966 122.768 171C120.76 157.008 125.594 141.479 124.161 127C121.479 99.8993 117.863 71.5045 119 44L124 40L118 40L118 21C114.751 21 116 16.7147 116 14L121 16L123 8L116 11L115 7L136 7L135 5L144.108 11.9676L158 15L154 14L153 16L154 19L149 20C149.955 23.3005 157.363 39 152 39L153 49L152 58L155 59L155 60L150 62C141.677 56.915 145.876 70.793 149 74L146 75L145 71L144 71L144 87C145.387 93.0522 147.813 98.0523 145 104L145 105C147.369 108.182 146.619 110.216 144 113L150 114C150 102.837 152.451 92.1759 151.961 81C151.775 76.7678 148.536 70.1102 149.674 66.2045C150.68 62.7509 154.385 63.3947 157 64C157.105 51.3472 158.7 38.6585 159.015 26C159.103 22.4466 161.243 16.6042 158.971 13.473C156.692 10.3304 150.379 12.2554 147.005 11.2762C142.921 10.0912 142.019 6.23889 138.586 4.60339C134.483 2.64938 115.656 2.71805 114.407 8.2392C111.879 19.4143 116.132 34.6247 116.91 46C118.957 75.8888 122.876 107.073 122.549 137C122.416 149.123 116.748 173.755 125.703 183.566C132.098 190.573 151.977 188.023 155.117 178.999C156.771 174.246 155.01 167.993 155 163C154.971 148.686 153.169 134.279 154 120z"/>
<path style="fill:#4c3f37; stroke:none;" d="M135 5L136 7L115 7L116 11L123 8L121 16L116 14L118 21L118 40L124 40L119 44C116.148 71.5784 122.608 101 124.062 128.285C124.791 141.978 120.094 158.956 122.637 172C123.319 175.498 124.585 181.015 127.419 183.397C133.336 188.368 150.219 186.288 152.671 178.714C157.511 163.761 148.856 145.317 151 130L146 128L146 131L144 131L152 123L139 122L139 123L141 123L141 124L136 125C133.891 122.586 129.668 123.958 127.921 121.455C124.961 117.214 142.015 118 144 118L144 117L142 117L142 116C145.55 116.619 149.079 117.458 149 113L144 113C146.954 110.87 147.971 107.597 145 105L145 104C148.555 98.7893 145.758 92.4972 144 87C147.338 86.4404 144.801 74.2095 144 71L145 71L146 75L149 74C146.776 70.7927 141.448 58.9249 150 62L155 60L155 59L152 58C153.642 54.5823 155.451 52.3249 153 49L152 39C157.613 38.2833 150.893 23.4585 149 20L154 19L153 16L154 14L158 15L144.108 11.5663L135 5z"/>
<path style="fill:#625655; stroke:none;" d="M131 8L132 9L131 8M134 8L137 11L134 8M124 11L124 14L128 13L124 11M145 15C145.519 20.081 144.958 22.5959 141 26L141 27L145 27L148 22C147.756 18.9144 147.559 15.4441 151 15L145 15M142 16L144 18L144 16L142 16M120 18L119 22L122 18L120 18M142 20L144 23L144 20L142 20z"/>
<path style="fill:#4c3f37; stroke:none;" d="M155 24L155 28L156 28L155 24z"/>
<path style="fill:#625655; stroke:none;" d="M142 29L144 31L144 29L142 29M119 32L119 33L122 34L119 32M127.333 42.6667L127.667 43.3333L127.333 42.6667M121.333 57.6667L121.667 58.3333L121.333 57.6667M144 58L144 59L147 59L144 58z"/>
<path style="fill:#fafafa; stroke:none;" d="M151 66L152 67L151 66z"/>
<path style="fill:#625655; stroke:none;" d="M123 72L124 73L123 72z"/>
<path style="fill:#fafafa; stroke:none;" d="M154 75C153.894 87.8552 154.994 107.214 150 119C152.987 117.681 154.495 116.408 154.891 112.981C156.037 103.076 157.835 84.1386 154 75z"/>
<path style="fill:#4c3f37; stroke:none;" d="M148 77L149 88L151 88C151 83.721 151.736 79.6942 148 77M145 79L146 80L145 79z"/>
<path style="fill:#625655; stroke:none;" d="M125.333 84.6667L125.667 85.3333L125.333 84.6667M123 88L123 91L124 91L123 88M125 95L124 97L125 95M126 110L126 116L127 116L126 110M133 112L128 113L128 114L137 113L136 112L135 114L134 114L133 112z"/>
<path style="fill:#4c3f37; stroke:none;" d="M147 112L148 113L147 112z"/>
<path style="fill:#151a18; stroke:none;" d="M142 116L142 117L145 117L142 116z"/>
<path style="fill:#625655; stroke:none;" d="M149 116L150 117L149 116M144 117L144 118L149 118L144 117M139 123L139 122L127 121L127 120L140 119C138.135 118.217 124.262 116.851 127.176 121.455C128.948 124.255 136.176 123 139 123z"/>
<path style="fill:#fafafa; stroke:none;" d="M148 119L149 120L148 119z"/>
<path style="fill:#151a18; stroke:none;" d="M124 120L125 121L124 120M136 125L141 124L136 125M143 123L144 124L143 123z"/>
<path style="fill:#fafafa; stroke:none;" d="M162 123L163 124L162 123z"/>
<path style="fill:#9f9b95; stroke:none;" d="M115.667 127.333L116.333 127.667L115.667 127.333z"/>
<path style="fill:#625655; stroke:none;" d="M137.667 128.333L138.333 128.667L137.667 128.333M157 132L158 133L157 132M141 133L142 134L141 133M127.333 136.667L127.667 137.333L127.333 136.667z"/>
<path style="fill:#fafafa; stroke:none;" d="M172 148L171 150L173 150L172 148z"/>
<path style="fill:#9f9b95; stroke:none;" d="M175 151L176 152L175 151M172.667 152.333L173.333 152.667L172.667 152.333M102 168L99 172L100 175L95 176L101 180L101 179L98 179L98 176L99 176C104.202 176.273 104.995 171.343 102 168M99 170L100 171L99 170z"/>
<path style="fill:#fafafa; stroke:none;" d="M103 171L104 172L103 171z"/>
<path style="fill:#625655; stroke:none;" d="M148 178L148 180L150 178L148 178M131 179L138 181L138 180L131 179z"/>
<path style="fill:#9f9b95; stroke:none;" d="M93 180L88 192L89 192L89 189L90 189L91 191L98 182L98 181L93 180z"/>
<path style="fill:#151a18; stroke:none;" d="M146 184L150 183L146 184z"/>
<path style="fill:#9f9b95; stroke:none;" d="M118 183L119 184L118 183z"/>
<path style="fill:#151a18; stroke:none;" d="M144 183L145 184L144 183z"/>
<path style="fill:#9f9b95; stroke:none;" d="M125.333 196.667L125.667 197.333L125.333 196.667M164 198L165 199L164 198M127 200L128 201L127 200z"/>
<path style="fill:#fafafa; stroke:none;" d="M283 287L284 288L283 287z"/>
<path style="fill:#625655; stroke:none;" d="M301 291L301 292L312 297L308 298L309 303L305 307L308 307L307 304L312 299C315.68 314.455 313 333.133 313 349C313 380.426 313.407 411.584 313.011 443C312.868 454.353 312.602 465.662 312.965 477C313.089 480.909 314.132 487.371 311.397 490.57C307.406 495.239 299.347 494.313 294 494.339C278.063 494.416 262.017 494 246 494C191.602 494 137.374 493 83 493C68.9787 493 55.0553 492 41 492C34.5997 492 26.4026 492.848 21.0586 488.567C14.7176 483.488 17.5504 474.085 16.7145 467C14.2371 446.004 16.1968 425.037 14.8657 404C13.2195 377.981 14.3583 352.004 14.9853 326C15.1756 318.11 12.0558 302.959 17.5887 296.532C21.8407 291.593 29.1383 292 35 292L76 292L245 292C240.031 289.915 233.35 291 228 291L193 291C152.318 291 111.625 291.25 71 290.051C58.0411 289.668 43.823 289.548 31 290.831C25.9118 291.34 20.2407 291.332 16.4336 295.394C9.29147 303.014 13 326.162 13 336C13 373.358 13.9976 410.688 14 448C14.0007 459.027 10.8244 485.882 22.0046 491.697C29.3679 495.527 40.8792 494.999 49 495C64.2926 495.001 79.4327 496.092 94.7145 495.861C144.856 495.104 194.826 496.997 245 497C261.746 497.001 279.359 498.414 296 496.83C301.489 496.308 309.695 496.877 313.258 491.867C315.782 488.318 315 483.106 315 479L315 449L315 333C315 319.607 319.619 291.438 301 291z"/>
<path style="fill:#4c3f37; stroke:none;" d="M312 299L307 304L308 307L305 307L309 303L308 298L312 297C307.642 290.122 297.216 293.305 290 293L290 292L301 292C295.411 289.655 288.875 291.926 283 291.996C268.338 292.171 253.663 292 239 292L87 292L41 292C34.1488 292 25.1644 290.519 19.1474 294.533C15.3723 297.052 15.1166 301.849 15.0147 306C14.7534 316.635 14.1521 327.402 14.1644 338C14.1918 361.686 14.7165 385.367 14.9961 409C15.1716 423.832 13.6434 439.284 15.5756 454C16.6838 462.44 13.5065 481.417 19.3179 487.772C23.5394 492.388 31.2951 491.998 37 492C50.7422 492.005 64.3199 492.978 78 493C134.369 493.091 190.609 494 247 494C262.35 494 277.688 495.153 293 494.594C298.503 494.393 307.017 495.732 311.397 491.272C314.106 488.513 313.011 482.518 312.999 479C312.963 467.667 312.873 456.336 313.004 445C313.38 412.291 313 379.73 313 347C313 332.243 316.181 313.146 312 299z"/>
<path style="fill:#625655; stroke:none;" d="M249 291L249 292L290 292C279.25 287.489 260.696 291 249 291z"/>
<path style="fill:#151a18; stroke:none;" d="M290 292L290 293L304 293L290 292z"/>
<path style="fill:#625655; stroke:none;" d="M306 295L307 296L306 295M296 296L296 297L300 297L296 296M303.333 296.667L303.667 297.333L303.333 296.667M218 307L218 310L221 310L221 307L218 307z"/>
<path style="fill:#151a18; stroke:none;" d="M32 324C35.5807 324.01 56.325 327.864 47.9491 335.111C44.7496 337.879 36.1816 335.764 32 337C33.6662 344.663 31.4614 353.143 31.7454 361C32.647 385.951 32 411.029 32 436C32 443.989 32.3963 452.025 32.2901 460C32.2427 463.562 30.9474 468.598 33.6034 471.552C36.1132 474.343 41.5817 473.388 44.9961 473.708C57.3639 474.863 69.8175 472.443 82 472.648C133.184 473.51 184.718 473.834 236 473.999C249.666 474.043 263.334 474 277 474C280.942 474 289.168 475.552 292.142 472.397C294.723 469.658 294.003 464.429 294 461L294 433C294.002 403.74 294.622 374.422 293.884 345.17C293.632 335.187 295.517 323.833 293.852 314.059C292.825 308.033 283.491 310 279 310L233 310.151C182.376 310.168 130.757 307.692 80 309.621C69.5993 310.016 58.5769 309 48 309C44.5657 309 38.4881 307.863 35.564 310.028C32.0908 312.599 32.3835 320.092 32 324z"/>
<path style="fill:#625655; stroke:none;" d="M307 309L310 312L307 309z"/>
<path style="fill:#4c3f37; stroke:none;" d="M283 331L282 331C278.772 334.347 274.601 335.534 270 335C270.69 332.004 269.867 326.981 271.742 324.539C274.885 320.445 281.457 327.396 283 330L284 330L285 326L288 327C285.749 325.286 283.671 325.186 280.999 324.317C278.69 323.566 276.504 321.97 274.055 321.705C267.433 320.99 265.31 342.631 279.852 335.201C281.896 334.156 282.338 333.045 283 331z"/>
<path style="fill:#625655; stroke:none;" d="M270 335C271.914 335.444 273.059 335.697 275.024 335.252C291.004 331.631 274.625 319.501 271.218 324.477C269.531 326.942 270.489 332.036 270 335z"/>
<path style="fill:#9f9b95; stroke:none;" d="M272 324C272.461 330.047 276.147 332.458 282 331C279.847 326.788 276.594 324.889 272 324z"/>
<path style="fill:#625655; stroke:none;" d="M28.1528 326.066C24.4944 328.107 25.9319 331.965 29.0594 333.566C32.5136 335.335 44.1071 336.438 47.3418 333.887C50.2096 331.626 45.7823 327.644 43.9059 326.573C40.5327 324.646 31.6308 324.126 28.1528 326.066z"/>
<path style="fill:#4c3f37; stroke:none;" d="M42.6667 325.333L43.3333 325.667L42.6667 325.333z"/>
<path style="fill:#9f9b95; stroke:none;" d="M45 331C38.1463 317.941 20.2175 335.211 37.9853 332.677C40.4343 332.327 42.5165 331.191 45 331z"/>
<path style="fill:#625655; stroke:none;" d="M28 341L28 342L31 343L31 340L28 341z"/>
<path style="fill:#4c3f37; stroke:none;" d="M147.667 344.333L148.333 344.667L147.667 344.333z"/>
<path style="fill:#625655; stroke:none;" d="M118 367L119 368L118 367z"/>
<path style="fill:#9f9b95; stroke:none;" d="M125 405L125 404L119 404L119 368L125 368L118.603 369.318L118 395L119.026 403.397L125 405z"/>
<path style="fill:#fafafa; stroke:none;" d="M119 368L119 404L125 404L125 396C125.002 392.643 127.753 378.669 132.972 387.164C136.508 392.919 129.727 404.789 140 404C140 393.356 141.795 372.603 125 382L125 368L119 368z"/>
<path style="fill:#4c3f37; stroke:none;" d="M125 368L125 382L126 382L125 368z"/>
<path style="fill:#9f9b95; stroke:none;" d="M92 369L92 370L95 370L92 369z"/>
<path style="fill:#fafafa; stroke:none;" d="M92 370L92 404L98 404C98.0003 400.877 97.1834 396.041 99.6034 393.603C103.179 390 108.887 392.003 112.142 386.945C121.636 372.193 101.937 368.939 92 370z"/>
<path style="fill:#9f9b95; stroke:none;" d="M96 369L96 370L106 370L96 369z"/>
<path style="fill:#4c3f37; stroke:none;" d="M106 369L107 370L106 369z"/>
<path style="fill:#9f9b95; stroke:none;" d="M108 370L109 371L108 370z"/>
<path style="fill:#4c3f37; stroke:none;" d="M109 370L110 371L109 370M91.3333 371.667L91.6667 372.333L91.3333 371.667z"/>
<path style="fill:#9f9b95; stroke:none;" d="M110 371L111 372L110 371M172 371L172 372L178 372L178 380C180.391 374.288 177.808 371.191 172 371z"/>
<path style="fill:#625655; stroke:none;" d="M178 371L179 372L178 371z"/>
<path style="fill:#9f9b95; stroke:none;" d="M111 372L112 373L111 372z"/>
<path style="fill:#fafafa; stroke:none;" d="M172 372L169 384C175.064 387.931 169.666 397.296 174.564 402.566C178.374 406.666 184.126 405.238 185 400C176.789 398.702 177.439 390.556 179 384L185 384L185 380L178 380L178 372L172 372z"/>
<path style="fill:#9f9b95; stroke:none;" d="M112 373L113 374L112 373z"/>
<path style="fill:#4c3f37; stroke:none;" d="M91 374L92 375L91 374z"/>
<path style="fill:#9f9b95; stroke:none;" d="M99 374L98 387L99 387L99 374z"/>
<path style="fill:#4c3f37; stroke:none;" d="M113 374L114 375L113 374z"/>
<path style="fill:#151a18; stroke:none;" d="M99 375L99 386C108.987 385.675 108.606 375.88 99 375z"/>
<path style="fill:#625655; stroke:none;" d="M103 375L104 376L103 375z"/>
<path style="fill:#9f9b95; stroke:none;" d="M104 375L105 376L104 375M113 375L114 376L113 375z"/>
<path style="fill:#4c3f37; stroke:none;" d="M91 376L91 399L92 399L91 376M106 377L107 378L106 377z"/>
<path style="fill:#9f9b95; stroke:none;" d="M107.333 378.667L107.667 379.333L107.333 378.667z"/>
<path style="fill:#4c3f37; stroke:none;" d="M114 378L115 379L114 378z"/>
<path style="fill:#625655; stroke:none;" d="M114.333 379.667L114.667 380.333L114.333 379.667z"/>
<path style="fill:#9f9b95; stroke:none;" d="M129 379L130 380L129 379M134.667 379.333L135.333 379.667L134.667 379.333z"/>
<path style="fill:#4c3f37; stroke:none;" d="M151 379L152 380L151 379z"/>
<path style="fill:#625655; stroke:none;" d="M152 379L153 380L152 379z"/>
<path style="fill:#9f9b95; stroke:none;" d="M153 379L153 380L159 380L153 379z"/>
<path style="fill:#625655; stroke:none;" d="M159 379L160 380L159 379z"/>
<path style="fill:#4c3f37; stroke:none;" d="M160 379L161 380L160 379M169 379L170 380L169 379z"/>
<path style="fill:#625655; stroke:none;" d="M170.667 379.333L171.333 379.667L170.667 379.333M179.667 379.333L180.333 379.667L179.667 379.333z"/>
<path style="fill:#4c3f37; stroke:none;" d="M181 379L182 380L181 379z"/>
<path style="fill:#625655; stroke:none;" d="M182.667 379.333L183.333 379.667L182.667 379.333z"/>
<path style="fill:#4c3f37; stroke:none;" d="M184 379L185 380L184 379z"/>
<path style="fill:#625655; stroke:none;" d="M195 379L196 380L195 379z"/>
<path style="fill:#9f9b95; stroke:none;" d="M196 379L196 380L202 380L196 379z"/>
<path style="fill:#625655; stroke:none;" d="M202 379L203 380L202 379M219 379L220 380L219 379z"/>
<path style="fill:#9f9b95; stroke:none;" d="M220 379L220 380L228 380L220 379z"/>
<path style="fill:#4c3f37; stroke:none;" d="M228 379L229 380L228 379z"/>
<path style="fill:#625655; stroke:none;" d="M107 380L108 381L107 380z"/>
<path style="fill:#9f9b95; stroke:none;" d="M127 380L128 381L127 380z"/>
<path style="fill:#625655; stroke:none;" d="M137 380L138 381L137 380z"/>
<path style="fill:#9f9b95; stroke:none;" d="M150 380L151 381L150 380z"/>
<path style="fill:#fafafa; stroke:none;" d="M151.015 380.742C138.547 385.659 145.499 409.868 159.995 404.258C173.684 398.96 166.586 374.603 151.015 380.742z"/>
<path style="fill:#9f9b95; stroke:none;" d="M161 380L162 381L161 380M169 380L169 383L170 383L169 380M193 380L194 381L193 380z"/>
<path style="fill:#fafafa; stroke:none;" d="M194.015 380.742C181.545 385.66 188.495 409.851 202.996 404.258C216.776 398.943 209.554 374.615 194.015 380.742z"/>
<path style="fill:#9f9b95; stroke:none;" d="M204 380L205 381L204 380z"/>
<path style="fill:#4c3f37; stroke:none;" d="M205 380L206 381L205 380z"/>
<path style="fill:#625655; stroke:none;" d="M217 380L218 381L217 380z"/>
<path style="fill:#fafafa; stroke:none;" d="M214 399L214 404C219.849 405.086 237.275 405.262 230.971 394.133C228.319 389.451 221.89 389.831 219 385L231 386C230.406 378.378 217.623 377.179 214.746 384.109C211.028 393.064 221.783 392.14 225.248 396.683C228.195 400.545 220.961 400.669 219.025 400.251L214 399z"/>
<path style="fill:#9f9b95; stroke:none;" d="M230 380L231 386L232 386L230 380z"/>
<path style="fill:#4c3f37; stroke:none;" d="M231 380L232 381L231 380z"/>
<path style="fill:#9f9b95; stroke:none;" d="M107.333 381.667L107.667 382.333L107.333 381.667z"/>
<path style="fill:#4c3f37; stroke:none;" d="M114 381L115 382L114 381z"/>
<path style="fill:#9f9b95; stroke:none;" d="M138 381L139 382L138 381z"/>
<path style="fill:#625655; stroke:none;" d="M148 381L149 382L148 381M163 381L164 382L163 381M191 381L192 382L191 381M206 381L207 382L206 381z"/>
<path style="fill:#4c3f37; stroke:none;" d="M215 381L216 382L215 381z"/>
<path style="fill:#625655; stroke:none;" d="M147 382L148 383L147 382M164 382L165 383L164 382M190 382L191 383L190 382M207 382L208 383L207 382z"/>
<path style="fill:#9f9b95; stroke:none;" d="M139 383L140 384L139 383z"/>
<path style="fill:#4c3f37; stroke:none;" d="M146 383L147 384L146 383M165 383L166 384L165 383M189 383L190 384L189 383M208 383L209 384L208 383z"/>
<path style="fill:#9f9b95; stroke:none;" d="M214 383L215 384L214 383M222 383L222 384L225 384L222 383M106 384L107 385L106 384M113 384L114 385L113 384M128 384L128 385L132 385L128 384M153 384L152 386L153 384z"/>
<path style="fill:#625655; stroke:none;" d="M154 384L155 385L154 384z"/>
<path style="fill:#151a18; stroke:none;" d="M155.1 384.971C149.188 386.459 150.192 401.015 156.87 399.248C161.961 397.902 161.281 383.415 155.1 384.971z"/>
<path style="fill:#625655; stroke:none;" d="M157 384L158 385L157 384z"/>
<path style="fill:#9f9b95; stroke:none;" d="M169 384L169 385L172 385L169 384M179 384L180 385L179 384M181 384L181 385L185 385L181 384M196 384L195 386L196 384z"/>
<path style="fill:#625655; stroke:none;" d="M197 384L198 385L197 384z"/>
<path style="fill:#151a18; stroke:none;" d="M198 384C187.519 394.476 203.646 406.511 202.965 391.025C202.885 389.191 202.516 387.745 202 386L201 386L202 388L201 388L198 384z"/>
<path style="fill:#4c3f37; stroke:none;" d="M198 385L202 388L202 385L198 385z"/>
<path style="fill:#625655; stroke:none;" d="M200 384L201 385L200 384M220 384L221 385L220 384M227 384L228 385L227 384z"/>
<path style="fill:#9f9b95; stroke:none;" d="M228 384L229 385L228 384M105 385L106 386L105 385z"/>
<path style="fill:#625655; stroke:none;" d="M113 385L114 386L113 385z"/>
<path style="fill:#9f9b95; stroke:none;" d="M126 385L127 386L126 385M132 385L133 386L132 385z"/>
<path style="fill:#625655; stroke:none;" d="M145 385L146 386L145 385z"/>
<path style="fill:#4c3f37; stroke:none;" d="M166 385L167 386L166 385z"/>
<path style="fill:#9f9b95; stroke:none;" d="M178 385L178 397L179 397L178 385z"/>
<path style="fill:#625655; stroke:none;" d="M188 385L189 386L188 385M209 385L210 386L209 385M213 385L214 386L213 385z"/>
<path style="fill:#9f9b95; stroke:none;" d="M219.333 385.667L219.667 386.333L219.333 385.667z"/>
<path style="fill:#625655; stroke:none;" d="M229 385L230 386L229 385M99 386L99 387L103 387L99 386z"/>
<path style="fill:#9f9b95; stroke:none;" d="M103 386L104 387L103 386z"/>
<path style="fill:#625655; stroke:none;" d="M125 386L126 387L125 386z"/>
<path style="fill:#9f9b95; stroke:none;" d="M133 386L134 387L133 386z"/>
<path style="fill:#4c3f37; stroke:none;" d="M140 386L141 387L140 386z"/>
<path style="fill:#625655; stroke:none;" d="M159 386L160 387L159 386z"/>
<path style="fill:#9f9b95; stroke:none;" d="M166 386L167 387L166 386z"/>
<path style="fill:#625655; stroke:none;" d="M202 386L203 387L202 386z"/>
<path style="fill:#9f9b95; stroke:none;" d="M209 386L210 387L209 386M213 386L213 389L214 389L213 386z"/>
<path style="fill:#4c3f37; stroke:none;" d="M231 386L232 387L231 386z"/>
<path style="fill:#625655; stroke:none;" d="M112 387L113 388L112 387z"/>
<path style="fill:#4c3f37; stroke:none;" d="M125 387L126 388L125 387z"/>
<path style="fill:#625655; stroke:none;" d="M133 387L133 402L134 402L133 387M140 387L140 405L141 405L140 387z"/>
<path style="fill:#4c3f37; stroke:none;" d="M144 387L145 388L144 387z"/>
<path style="fill:#9f9b95; stroke:none;" d="M151 387L152 388L151 387z"/>
<path style="fill:#4c3f37; stroke:none;" d="M187 387L188 388L187 387z"/>
<path style="fill:#9f9b95; stroke:none;" d="M194 387L195 388L194 387M111 388L112 389L111 388z"/>
<path style="fill:#625655; stroke:none;" d="M144 388L145 389L144 388M151 388L152 389L151 388z"/>
<path style="fill:#9f9b95; stroke:none;" d="M160 388L161 389L160 388z"/>
<path style="fill:#4c3f37; stroke:none;" d="M167 388L168 389L167 388z"/>
<path style="fill:#625655; stroke:none;" d="M187 388L188 389L187 388M194 388L195 389L194 388z"/>
<path style="fill:#9f9b95; stroke:none;" d="M203 388L204 389L203 388z"/>
<path style="fill:#4c3f37; stroke:none;" d="M210 388L211 389L210 388z"/>
<path style="fill:#9f9b95; stroke:none;" d="M220 388L221 389L220 388z"/>
<path style="fill:#4c3f37; stroke:none;" d="M221 388L222 389L221 388z"/>
<path style="fill:#9f9b95; stroke:none;" d="M110 389L111 390L110 389z"/>
<path style="fill:#4c3f37; stroke:none;" d="M125 389L126 390L125 389z"/>
<path style="fill:#9f9b95; stroke:none;" d="M144 389L144 396L145 396L144 389z"/>
<path style="fill:#4c3f37; stroke:none;" d="M151 389L152 390L151 389z"/>
<path style="fill:#625655; stroke:none;" d="M160.333 389.667L160.667 390.333L160.333 389.667M167.333 389.667L167.667 390.333L167.333 389.667z"/>
<path style="fill:#9f9b95; stroke:none;" d="M187 389L187 396L188 396L187 389z"/>
<path style="fill:#625655; stroke:none;" d="M203.333 389.667L203.667 390.333L203.333 389.667M210.333 389.667L210.667 390.333L210.333 389.667z"/>
<path style="fill:#4c3f37; stroke:none;" d="M213 389L214 390L213 389z"/>
<path style="fill:#9f9b95; stroke:none;" d="M223 389L224 390L223 389z"/>
<path style="fill:#625655; stroke:none;" d="M224 389L225 390L224 389z"/>
<path style="fill:#4c3f37; stroke:none;" d="M109 390L110 391L109 390z"/>
<path style="fill:#9f9b95; stroke:none;" d="M214 390L215 391L214 390M226 390L227 391L226 390z"/>
<path style="fill:#625655; stroke:none;" d="M227 390L228 391L227 390z"/>
<path style="fill:#9f9b95; stroke:none;" d="M106 391L107 392L106 391z"/>
<path style="fill:#625655; stroke:none;" d="M107 391L108 392L107 391z"/>
<path style="fill:#4c3f37; stroke:none;" d="M125 391L125 400L126 400L125 391M160 391L160 394L161 394L160 391z"/>
<path style="fill:#9f9b95; stroke:none;" d="M167.333 391.667L167.667 392.333L167.333 391.667z"/>
<path style="fill:#4c3f37; stroke:none;" d="M203.333 391.667L203.667 392.333L203.333 391.667z"/>
<path style="fill:#9f9b95; stroke:none;" d="M210.333 391.667L210.667 392.333L210.333 391.667z"/>
<path style="fill:#625655; stroke:none;" d="M229 391L230 392L229 391z"/>
<path style="fill:#4c3f37; stroke:none;" d="M99 392L100 393L99 392z"/>
<path style="fill:#625655; stroke:none;" d="M100.667 392.333L101.333 392.667L100.667 392.333z"/>
<path style="fill:#4c3f37; stroke:none;" d="M102 392L103 393L102 392z"/>
<path style="fill:#625655; stroke:none;" d="M103 392L104 393L103 392z"/>
<path style="fill:#9f9b95; stroke:none;" d="M216 392L217 393L216 392M230 392L231 393L230 392M98 393L98 404L92 404L92 405L99 405L98 393z"/>
<path style="fill:#625655; stroke:none;" d="M167.333 393.667L167.667 394.333L167.333 393.667M203 393L203 396L204 396L203 393M210.333 393.667L210.667 394.333L210.333 393.667M217 393L218 394L217 393z"/>
<path style="fill:#9f9b95; stroke:none;" d="M218 393L219 394L218 393M231 393L232 394L231 393z"/>
<path style="fill:#625655; stroke:none;" d="M160.333 394.667L160.667 395.333L160.333 394.667z"/>
<path style="fill:#4c3f37; stroke:none;" d="M219 394L220 395L219 394z"/>
<path style="fill:#625655; stroke:none;" d="M220 394L221 395L220 394z"/>
<path style="fill:#9f9b95; stroke:none;" d="M221 394L222 395L221 394z"/>
<path style="fill:#4c3f37; stroke:none;" d="M232 394L233 395L232 394M151 395L152 396L151 395M167 395L168 396L167 395M194 395L195 396L194 395M210 395L211 396L210 395M223 395L224 396L223 395z"/>
<path style="fill:#9f9b95; stroke:none;" d="M224 395L225 396L224 395M232 395L232 399L233 399L232 395z"/>
<path style="fill:#625655; stroke:none;" d="M144 396L145 397L144 396M151 396L152 397L151 396z"/>
<path style="fill:#9f9b95; stroke:none;" d="M160 396L161 397L160 396z"/>
<path style="fill:#625655; stroke:none;" d="M187 396L188 397L187 396M194 396L195 397L194 396z"/>
<path style="fill:#9f9b95; stroke:none;" d="M203 396L204 397L203 396M226 396L227 397L226 396M151 397L152 398L151 397M166 397L167 398L166 397M194 397L195 398L194 397z"/>
<path style="fill:#4c3f37; stroke:none;" d="M213 397L214 398L213 397M226 397L227 398L226 397z"/>
<path style="fill:#9f9b95; stroke:none;" d="M145 398L146 399L145 398z"/>
<path style="fill:#4c3f37; stroke:none;" d="M152 398L153 399L152 398z"/>
<path style="fill:#9f9b95; stroke:none;" d="M159 398L160 399L159 398z"/>
<path style="fill:#625655; stroke:none;" d="M166 398L167 399L166 398z"/>
<path style="fill:#9f9b95; stroke:none;" d="M172.333 398.667L172.667 399.333L172.333 398.667z"/>
<path style="fill:#4c3f37; stroke:none;" d="M179 398L180 399L179 398z"/>
<path style="fill:#9f9b95; stroke:none;" d="M188 398L189 399L188 398z"/>
<path style="fill:#4c3f37; stroke:none;" d="M195 398L196 399L195 398z"/>
<path style="fill:#9f9b95; stroke:none;" d="M202 398L203 399L202 398M209 398L210 399L209 398M213 398L213 404L214 404L215 398L213 398z"/>
<path style="fill:#625655; stroke:none;" d="M145 399L146 400L145 399z"/>
<path style="fill:#4c3f37; stroke:none;" d="M153 399L154 400L153 399z"/>
<path style="fill:#625655; stroke:none;" d="M158 399L159 400L158 399z"/>
<path style="fill:#4c3f37; stroke:none;" d="M183 399L184 400L183 399z"/>
<path style="fill:#625655; stroke:none;" d="M184 399L185 400L184 399M188 399L189 400L188 399M201 399L202 400L201 399z"/>
<path style="fill:#9f9b95; stroke:none;" d="M216 399L217 400L216 399z"/>
<path style="fill:#4c3f37; stroke:none;" d="M217 399L218 400L217 399z"/>
<path style="fill:#625655; stroke:none;" d="M226 399L227 400L226 399M232 399L233 400L232 399z"/>
<path style="fill:#4c3f37; stroke:none;" d="M91 400L91 403L92 403L91 400z"/>
<path style="fill:#9f9b95; stroke:none;" d="M146 400L147 401L146 400M154 400L155 401L154 400z"/>
<path style="fill:#625655; stroke:none;" d="M155 400L156 401L155 400z"/>
<path style="fill:#9f9b95; stroke:none;" d="M156.667 400.333L157.333 400.667L156.667 400.333M165 400L166 401L165 400z"/>
<path style="fill:#625655; stroke:none;" d="M172 400L173 401L172 400z"/>
<path style="fill:#9f9b95; stroke:none;" d="M189 400L190 401L189 400M197 400L198 401L197 400z"/>
<path style="fill:#625655; stroke:none;" d="M198 400L199 401L198 400z"/>
<path style="fill:#9f9b95; stroke:none;" d="M199.667 400.333L200.333 400.667L199.667 400.333M208 400L209 401L208 400M219 400L220 401L219 400z"/>
<path style="fill:#625655; stroke:none;" d="M220 400L220 401L225 401L220 400z"/>
<path style="fill:#9f9b95; stroke:none;" d="M225 400L226 401L225 400z"/>
<path style="fill:#4c3f37; stroke:none;" d="M232 400L233 401L232 400M125.333 401.667L125.667 402.333L125.333 401.667z"/>
<path style="fill:#9f9b95; stroke:none;" d="M164 401L165 402L164 401M207 401L208 402L207 401M231 401L232 402L231 401z"/>
<path style="fill:#4c3f37; stroke:none;" d="M133 402L134 403L133 402M147 402L148 403L147 402z"/>
<path style="fill:#9f9b95; stroke:none;" d="M163 402L164 403L163 402z"/>
<path style="fill:#625655; stroke:none;" d="M173 402L174 403L173 402z"/>
<path style="fill:#4c3f37; stroke:none;" d="M190 402L191 403L190 402z"/>
<path style="fill:#9f9b95; stroke:none;" d="M206 402L207 403L206 402M230 402L231 403L230 402z"/>
<path style="fill:#625655; stroke:none;" d="M133 403L134 404L133 403z"/>
<path style="fill:#9f9b95; stroke:none;" d="M149 403L150 404L149 403M162 403L163 404L162 403z"/>
<path style="fill:#625655; stroke:none;" d="M174 403L175 404L174 403z"/>
<path style="fill:#9f9b95; stroke:none;" d="M192 403L193 404L192 403M205 403L206 404L205 403M229 403L230 404L229 403z"/>
<path style="fill:#625655; stroke:none;" d="M118 404L119 405L118 404z"/>
<path style="fill:#4c3f37; stroke:none;" d="M133 404L134 405L133 404z"/>
<path style="fill:#9f9b95; stroke:none;" d="M134.667 404.333L135.333 404.667L134.667 404.333M137 404L137 405L140 405L137 404z"/>
<path style="fill:#625655; stroke:none;" d="M150 404L151 405L150 404z"/>
<path style="fill:#9f9b95; stroke:none;" d="M151 404L152 405L151 404M160 404L161 405L160 404M176 404L177 405L176 404M184 404L185 405L184 404z"/>
<path style="fill:#625655; stroke:none;" d="M193 404L194 405L193 404z"/>
<path style="fill:#9f9b95; stroke:none;" d="M194 404L195 405L194 404M203 404L204 405L203 404z"/>
<path style="fill:#4c3f37; stroke:none;" d="M204 404L205 405L204 404z"/>
<path style="fill:#625655; stroke:none;" d="M215 404L216 405L215 404z"/>
<path style="fill:#9f9b95; stroke:none;" d="M216 404L217 405L216 404M227 404L228 405L227 404z"/>
<path style="fill:#4c3f37; stroke:none;" d="M228 404L229 405L228 404M153 405L154 406L153 405z"/>
<path style="fill:#625655; stroke:none;" d="M154 405L155 406L154 405z"/>
<path style="fill:#4c3f37; stroke:none;" d="M155 405L156 406L155 405z"/>
<path style="fill:#625655; stroke:none;" d="M156.667 405.333L157.333 405.667L156.667 405.333z"/>
<path style="fill:#4c3f37; stroke:none;" d="M158 405L159 406L158 405M179.667 405.333L180.333 405.667L179.667 405.333M196 405L197 406L196 405z"/>
<path style="fill:#625655; stroke:none;" d="M197 405L197 406L201 406L197 405z"/>
<path style="fill:#4c3f37; stroke:none;" d="M201 405L202 406L201 405z"/>
<path style="fill:#625655; stroke:none;" d="M219 405L219 406L222 406L219 405z"/>
<path style="fill:#9f9b95; stroke:none;" d="M222 405L223 406L222 405z"/>
<path style="fill:#625655; stroke:none;" d="M223.667 405.333L224.333 405.667L223.667 405.333M24 482C24.614 484.851 25.3027 484.854 28 484L24 482M23 486L24 487L23 486M307.667 487.333L308.333 487.667L307.667 487.333M299.667 490.333L300.333 490.667L299.667 490.333z"/>
</svg>
